<?xml version="1.0" encoding="UTF-8"?>
<svg xmlns="http://www.w3.org/2000/svg" xmlns:xlink="http://www.w3.org/1999/xlink" width="40px" height="40px" viewBox="0 0 40 40" version="1.1">
<g id="surface1">
<path style=" stroke:none;fill-rule:nonzero;fill:rgb(28.235294%,37.254902%,90.196078%);fill-opacity:1;" d="M 20.128906 5.542969 C 20.402344 5.542969 20.679688 5.539062 20.964844 5.535156 C 23.246094 5.542969 25.0625 5.957031 27.003906 7.179688 C 27.207031 7.304688 27.414062 7.433594 27.625 7.5625 C 28.734375 8.300781 28.734375 8.300781 29.230469 8.71875 C 29.230469 8.886719 29.230469 9.054688 29.230469 9.230469 C 29.382812 9.300781 29.539062 9.367188 29.695312 9.4375 C 30.273438 9.753906 30.597656 10.046875 31.027344 10.542969 C 31.148438 10.683594 31.269531 10.820312 31.394531 10.964844 C 32.609375 12.703125 33.066406 14.445312 33.441406 16.507812 C 33.636719 17.496094 33.855469 18.296875 34.382812 19.164062 C 35.066406 20.332031 35.089844 21.25 34.871094 22.5625 C 34.164062 23.980469 34.164062 23.980469 33.347656 24.292969 C 32.550781 24.777344 32.375 25.4375 32.003906 26.28125 C 30.492188 29.5 28.027344 31.902344 24.679688 33.171875 C 21.339844 34.324219 17.566406 34.203125 14.355469 32.71875 C 13.171875 32.09375 11.996094 31.449219 11.027344 30.511719 C 11.027344 30.34375 11.027344 30.175781 11.027344 30 C 10.855469 30 10.6875 30 10.511719 30 C 10.113281 29.519531 10.113281 29.519531 9.664062 28.863281 C 9.503906 28.628906 9.34375 28.394531 9.179688 28.15625 C 8.765625 27.511719 8.410156 26.867188 8.0625 26.1875 C 7.511719 25.15625 6.898438 24.714844 5.898438 24.101562 C 5.105469 23.179688 4.980469 22.335938 5.019531 21.15625 C 5.1875 20.160156 5.628906 19.332031 6.078125 18.433594 C 6.421875 17.667969 6.625 16.941406 6.8125 16.121094 C 7.691406 12.324219 9.820312 9.222656 13.121094 7.074219 C 13.613281 6.816406 14.101562 6.613281 14.617188 6.410156 C 14.859375 6.308594 14.859375 6.308594 15.105469 6.207031 C 16.78125 5.570312 18.347656 5.527344 20.128906 5.542969 Z M 20.128906 5.542969 "/>
<path style=" stroke:none;fill-rule:nonzero;fill:rgb(17.647059%,27.058824%,42.352941%);fill-opacity:1;" d="M 27.179688 13.332031 C 28.546875 14.472656 29.261719 15.738281 29.742188 17.4375 C 29.742188 17.773438 29.742188 18.113281 29.742188 18.460938 C 29.914062 18.460938 30.082031 18.460938 30.257812 18.460938 C 30.4375 20.894531 29.59375 22.8125 28.074219 24.699219 C 26.796875 26.132812 24.816406 27.347656 22.867188 27.488281 C 20.398438 27.523438 18.359375 27.257812 16.410156 25.640625 C 14.640625 23.671875 13.375 22.035156 13.453125 19.304688 C 13.832031 16.976562 15.242188 14.941406 17.066406 13.484375 C 20.171875 11.457031 24.011719 11.390625 27.179688 13.332031 Z M 27.179688 13.332031 "/>
<path style=" stroke:none;fill-rule:nonzero;fill:rgb(57.647059%,83.921569%,92.156863%);fill-opacity:1;" d="M 20.128906 5.542969 C 20.402344 5.542969 20.679688 5.539062 20.964844 5.535156 C 23.246094 5.542969 25.0625 5.957031 27.003906 7.179688 C 27.207031 7.304688 27.414062 7.433594 27.625 7.5625 C 28.734375 8.300781 28.734375 8.300781 29.230469 8.71875 C 29.230469 8.886719 29.230469 9.054688 29.230469 9.230469 C 29.382812 9.300781 29.539062 9.367188 29.695312 9.4375 C 30.273438 9.753906 30.597656 10.046875 31.027344 10.542969 C 31.148438 10.683594 31.269531 10.820312 31.394531 10.964844 C 32.609375 12.703125 33.066406 14.445312 33.441406 16.507812 C 33.636719 17.496094 33.855469 18.296875 34.382812 19.164062 C 35.066406 20.332031 35.085938 21.25 34.871094 22.5625 C 34.28125 23.785156 33.8125 24.167969 32.5625 24.617188 C 32.574219 24.425781 32.585938 24.234375 32.597656 24.035156 C 32.90625 18.6875 32.90625 18.6875 30.511719 14.101562 C 30.304688 13.835938 30.09375 13.574219 29.878906 13.300781 C 27.542969 10.648438 24.148438 9.144531 20.667969 8.917969 C 16.871094 8.820312 13.605469 10.089844 10.804688 12.699219 C 9.578125 14.117188 8.03125 16.289062 7.949219 18.207031 C 8.253906 18.699219 8.253906 18.699219 8.703125 19.132812 C 9.578125 20.214844 9.683594 21.050781 9.605469 22.421875 C 9.4375 23.355469 9.101562 23.921875 8.460938 24.617188 C 7.882812 24.96875 7.882812 24.96875 7.4375 25.128906 C 6.363281 24.484375 5.601562 24 5.128906 22.820312 C 4.820312 21.128906 5.328125 19.9375 6.078125 18.433594 C 6.421875 17.667969 6.625 16.941406 6.8125 16.121094 C 7.691406 12.324219 9.820312 9.222656 13.121094 7.074219 C 13.613281 6.816406 14.101562 6.613281 14.617188 6.410156 C 14.859375 6.308594 14.859375 6.308594 15.105469 6.207031 C 16.78125 5.570312 18.347656 5.527344 20.128906 5.542969 Z M 20.128906 5.542969 "/>
<path style=" stroke:none;fill-rule:nonzero;fill:rgb(19.607843%,29.411765%,70.980392%);fill-opacity:1;" d="M 27.179688 10.769531 C 27.851562 11.363281 27.851562 11.363281 28.207031 11.792969 C 27.09375 11.652344 26.179688 11.226562 25.175781 10.753906 C 24.648438 10.527344 24.148438 10.378906 23.589844 10.257812 C 23.589844 10.003906 23.589844 9.75 23.589844 9.488281 C 22.65625 9.464844 21.71875 9.449219 20.785156 9.4375 C 20.523438 9.433594 20.261719 9.425781 19.992188 9.417969 C 18.300781 9.402344 16.945312 9.609375 15.382812 10.257812 C 15.210938 10.324219 15.035156 10.390625 14.855469 10.460938 C 13.917969 10.789062 13.917969 10.789062 13.332031 11.539062 C 13.140625 11.648438 12.945312 11.753906 12.746094 11.867188 C 11.925781 12.386719 11.515625 12.941406 10.960938 13.734375 C 10.699219 14.105469 10.699219 14.105469 10.429688 14.488281 C 10.003906 15.09375 10.003906 15.09375 9.742188 15.640625 C 9.574219 15.640625 9.40625 15.640625 9.230469 15.640625 C 9.230469 15.980469 9.230469 16.316406 9.230469 16.667969 C 9.0625 16.667969 8.890625 16.667969 8.71875 16.667969 C 8.613281 18.003906 8.613281 18.003906 9.214844 19.167969 C 9.390625 19.355469 9.5625 19.546875 9.742188 19.742188 C 10.003906 20.53125 10.042969 21.097656 10.046875 21.921875 C 10.050781 22.167969 10.054688 22.414062 10.058594 22.667969 C 10 23.332031 10 23.332031 9.488281 24.101562 C 9.390625 24.859375 9.398438 25.242188 9.808594 25.894531 C 12.390625 28.671875 15.394531 31.195312 18.972656 32.5625 C 19.058594 32.648438 19.144531 32.734375 19.230469 32.820312 C 19.933594 32.847656 20.628906 32.855469 21.332031 32.851562 C 21.523438 32.855469 21.71875 32.855469 21.917969 32.855469 C 23.015625 32.855469 24.046875 32.78125 25.128906 32.5625 C 25.128906 32.734375 25.128906 32.902344 25.128906 33.078125 C 21.128906 34.191406 17.34375 34.296875 13.605469 32.324219 C 12.6875 31.789062 11.796875 31.257812 11.027344 30.511719 C 11.027344 30.34375 11.027344 30.175781 11.027344 30 C 10.855469 30 10.6875 30 10.511719 30 C 9.851562 29.191406 9.292969 28.308594 8.71875 27.4375 C 8.601562 27.257812 8.484375 27.082031 8.363281 26.902344 C 7.980469 26.289062 7.691406 25.816406 7.691406 25.082031 C 8.027344 24.472656 8.46875 24.0625 8.972656 23.589844 C 9.488281 22.566406 9.398438 21.367188 9.230469 20.257812 C 8.875 19.652344 8.492188 19.183594 8.003906 18.679688 C 7.691406 18.207031 7.691406 18.207031 7.734375 17.589844 C 8.867188 14.082031 11.292969 11.5625 14.511719 9.90625 C 18.660156 7.921875 23.265625 8.363281 27.179688 10.769531 Z M 27.179688 10.769531 "/>
<path style=" stroke:none;fill-rule:nonzero;fill:rgb(95.294118%,98.431373%,99.607843%);fill-opacity:1;" d="M 27.660156 9.261719 C 29.597656 10.789062 30.703125 11.941406 31.28125 14.359375 C 30.605469 14.09375 30.277344 13.875 29.839844 13.285156 C 27.84375 10.921875 24.601562 9.285156 21.539062 8.972656 C 17.574219 8.71875 14.410156 9.683594 11.332031 12.242188 C 10.320312 13.175781 9.664062 14.199219 9.023438 15.410156 C 8.921875 15.570312 8.820312 15.730469 8.71875 15.898438 C 8.546875 15.898438 8.378906 15.898438 8.207031 15.898438 C 7.949219 14.246094 8.570312 13.304688 9.496094 11.957031 C 11.359375 9.460938 14.191406 7.542969 17.242188 6.769531 C 21.152344 6.203125 24.46875 6.910156 27.660156 9.261719 Z M 27.660156 9.261719 "/>
<path style=" stroke:none;fill-rule:nonzero;fill:rgb(50.980392%,89.019608%,98.431373%);fill-opacity:1;" d="M 21.539062 14.871094 C 22.46875 14.871094 23.398438 14.871094 24.359375 14.871094 C 24.382812 15.976562 24.402344 17.078125 24.414062 18.183594 C 24.421875 18.558594 24.425781 18.933594 24.4375 19.308594 C 24.449219 19.847656 24.453125 20.390625 24.460938 20.929688 C 24.464844 21.257812 24.46875 21.582031 24.476562 21.917969 C 24.339844 22.980469 24.003906 23.53125 23.332031 24.359375 C 22.628906 24.710938 22.050781 24.648438 21.265625 24.648438 C 20.847656 24.648438 20.847656 24.648438 20.421875 24.648438 C 19.742188 24.617188 19.742188 24.617188 19.488281 24.359375 C 19.449219 23.675781 19.476562 22.992188 19.488281 22.308594 C 20.078125 22.308594 20.671875 22.308594 21.28125 22.308594 C 21.367188 19.855469 21.453125 17.398438 21.539062 14.871094 Z M 21.539062 14.871094 "/>
<path style=" stroke:none;fill-rule:nonzero;fill:rgb(65.490196%,85.098039%,93.333333%);fill-opacity:1;" d="M 23.589844 5.898438 C 25.671875 6.152344 27.71875 7.257812 29.230469 8.71875 C 29.230469 8.886719 29.230469 9.054688 29.230469 9.230469 C 29.460938 9.332031 29.460938 9.332031 29.695312 9.4375 C 30.273438 9.753906 30.597656 10.046875 31.027344 10.542969 C 31.207031 10.753906 31.207031 10.753906 31.394531 10.964844 C 32.609375 12.703125 33.066406 14.445312 33.441406 16.507812 C 33.636719 17.496094 33.855469 18.296875 34.382812 19.164062 C 35.066406 20.332031 35.085938 21.25 34.871094 22.5625 C 34.28125 23.785156 33.8125 24.167969 32.5625 24.617188 C 32.574219 24.421875 32.582031 24.230469 32.59375 24.03125 C 32.925781 19.234375 32.925781 19.234375 31.160156 14.917969 C 30.769531 14.359375 30.769531 14.359375 30.769531 13.589844 C 29.996094 11.394531 28.390625 10.203125 26.667969 8.71875 C 26.921875 8.71875 27.175781 8.71875 27.4375 8.71875 C 27.519531 8.546875 27.605469 8.378906 27.691406 8.207031 C 27.4375 8.121094 27.183594 8.035156 26.921875 7.949219 C 26.921875 7.78125 26.921875 7.609375 26.921875 7.4375 C 26.332031 7.351562 25.738281 7.265625 25.128906 7.179688 C 25.128906 7.011719 25.128906 6.839844 25.128906 6.667969 C 24.96875 6.636719 24.8125 6.601562 24.648438 6.570312 C 24.101562 6.410156 24.101562 6.410156 23.589844 5.898438 Z M 23.589844 5.898438 "/>
<path style=" stroke:none;fill-rule:nonzero;fill:rgb(43.137255%,86.27451%,98.823529%);fill-opacity:1;" d="M 7.4375 17.691406 C 8.773438 18.960938 9.523438 19.777344 9.597656 21.652344 C 9.5625 22.914062 9.339844 23.664062 8.460938 24.617188 C 7.882812 24.96875 7.882812 24.96875 7.4375 25.128906 C 7.378906 24.984375 7.320312 24.84375 7.257812 24.695312 C 6.9375 24.050781 6.9375 24.050781 6.265625 23.527344 C 5.625 22.804688 5.386719 22.316406 5.3125 21.351562 C 5.457031 20.1875 6.078125 19.199219 6.667969 18.207031 C 6.921875 18.207031 7.175781 18.207031 7.4375 18.207031 C 7.4375 18.035156 7.4375 17.867188 7.4375 17.691406 Z M 7.4375 17.691406 "/>
<path style=" stroke:none;fill-rule:nonzero;fill:rgb(27.058824%,31.764706%,66.666667%);fill-opacity:1;" d="M 14.101562 30 C 14.46875 30.214844 14.46875 30.214844 14.84375 30.429688 C 15.167969 30.617188 15.492188 30.804688 15.816406 30.992188 C 16.058594 31.132812 16.058594 31.132812 16.304688 31.277344 C 17.175781 31.78125 18.03125 32.203125 18.972656 32.5625 C 19.058594 32.648438 19.144531 32.734375 19.230469 32.820312 C 19.933594 32.847656 20.628906 32.855469 21.332031 32.851562 C 21.621094 32.855469 21.621094 32.855469 21.917969 32.855469 C 23.015625 32.855469 24.046875 32.78125 25.128906 32.5625 C 25.128906 32.734375 25.128906 32.902344 25.128906 33.078125 C 20.714844 34.308594 16.867188 34.160156 12.839844 31.898438 C 12.308594 31.539062 12.308594 31.539062 12.050781 31.027344 C 12.417969 30.914062 12.417969 30.914062 12.789062 30.800781 C 13.601562 30.570312 13.601562 30.570312 14.101562 30 Z M 14.101562 30 "/>
<path style=" stroke:none;fill-rule:nonzero;fill:rgb(32.156863%,38.823529%,76.078431%);fill-opacity:1;" d="M 27.179688 10.769531 C 27.851562 11.363281 27.851562 11.363281 28.207031 11.792969 C 27.09375 11.652344 26.179688 11.226562 25.175781 10.753906 C 24.648438 10.527344 24.148438 10.378906 23.589844 10.257812 C 23.589844 10.003906 23.589844 9.75 23.589844 9.488281 C 22.65625 9.464844 21.71875 9.449219 20.785156 9.4375 C 20.523438 9.433594 20.261719 9.425781 19.992188 9.417969 C 18.300781 9.402344 16.945312 9.609375 15.382812 10.257812 C 15.210938 10.324219 15.035156 10.390625 14.855469 10.460938 C 13.917969 10.789062 13.917969 10.789062 13.332031 11.539062 C 13.054688 11.679688 13.054688 11.679688 12.773438 11.828125 C 11.773438 12.492188 11.191406 13.378906 10.511719 14.359375 C 10.34375 14.019531 10.175781 13.683594 10 13.332031 C 14.421875 8.28125 21.449219 7.242188 27.179688 10.769531 Z M 27.179688 10.769531 "/>
<path style=" stroke:none;fill-rule:nonzero;fill:rgb(57.647059%,87.058824%,98.823529%);fill-opacity:1;" d="M 32.820312 18.207031 C 32.90625 18.542969 32.988281 18.882812 33.078125 19.230469 C 33.332031 19.230469 33.585938 19.230469 33.847656 19.230469 C 33.847656 19.398438 33.847656 19.570312 33.847656 19.742188 C 34.183594 19.828125 34.523438 19.914062 34.871094 20 C 34.964844 21.292969 35.011719 22.277344 34.4375 23.460938 C 33.847656 24.101562 33.847656 24.101562 32.5625 24.617188 C 32.648438 22.5 32.734375 20.382812 32.820312 18.207031 Z M 32.820312 18.207031 "/>
<path style=" stroke:none;fill-rule:nonzero;fill:rgb(69.803922%,87.058824%,96.470588%);fill-opacity:1;" d="M 32.050781 12.5625 C 32.96875 13.527344 33.09375 14.621094 33.332031 15.882812 C 33.59375 17.253906 33.855469 18.292969 34.617188 19.488281 C 34.53125 19.65625 34.445312 19.824219 34.359375 20 C 34.191406 19.914062 34.019531 19.832031 33.847656 19.742188 C 33.847656 19.574219 33.847656 19.40625 33.847656 19.230469 C 33.59375 19.230469 33.339844 19.230469 33.078125 19.230469 C 32.980469 19 32.886719 18.765625 32.789062 18.527344 C 32.28125 17.332031 31.675781 16.191406 31.078125 15.042969 C 30.769531 14.359375 30.769531 14.359375 30.769531 13.589844 C 30.855469 13.421875 30.9375 13.25 31.027344 13.078125 C 31.363281 13.246094 31.703125 13.414062 32.050781 13.589844 C 32.050781 13.25 32.050781 12.914062 32.050781 12.5625 Z M 32.050781 12.5625 "/>
<path style=" stroke:none;fill-rule:nonzero;fill:rgb(57.254902%,91.764706%,99.215686%);fill-opacity:1;" d="M 21.539062 14.871094 C 22.46875 14.871094 23.398438 14.871094 24.359375 14.871094 C 24.382812 15.976562 24.402344 17.078125 24.414062 18.183594 C 24.421875 18.558594 24.425781 18.933594 24.4375 19.308594 C 24.449219 19.847656 24.453125 20.390625 24.460938 20.929688 C 24.464844 21.257812 24.46875 21.582031 24.476562 21.917969 C 24.339844 22.980469 24.007812 23.535156 23.332031 24.359375 C 22.785156 24.507812 22.785156 24.507812 22.242188 24.457031 C 21.769531 24.40625 21.769531 24.40625 21.28125 24.359375 C 22.050781 23.847656 22.050781 23.847656 23.078125 23.847656 C 23.910156 19.660156 23.910156 19.660156 23.332031 15.640625 C 22.683594 15.472656 22.683594 15.472656 22.050781 15.382812 C 21.964844 15.808594 21.882812 16.230469 21.792969 16.667969 C 21.710938 16.667969 21.625 16.667969 21.539062 16.667969 C 21.539062 16.074219 21.539062 15.480469 21.539062 14.871094 Z M 21.539062 14.871094 "/>
<path style=" stroke:none;fill-rule:nonzero;fill:rgb(65.098039%,87.45098%,95.294118%);fill-opacity:1;" d="M 18.476562 5.589844 C 18.902344 5.59375 18.902344 5.59375 19.335938 5.597656 C 19.628906 5.601562 19.921875 5.605469 20.222656 5.609375 C 20.671875 5.613281 20.671875 5.613281 21.128906 5.617188 C 21.863281 5.621094 22.597656 5.628906 23.332031 5.640625 C 23.332031 5.726562 23.332031 5.808594 23.332031 5.898438 C 23.15625 5.902344 22.976562 5.910156 22.792969 5.917969 C 21.980469 5.945312 21.164062 5.976562 20.351562 6.007812 C 20.070312 6.019531 19.792969 6.03125 19.503906 6.039062 C 19.09375 6.054688 19.09375 6.054688 18.675781 6.074219 C 18.300781 6.085938 18.300781 6.085938 17.917969 6.101562 C 17.148438 6.15625 16.402344 6.273438 15.640625 6.410156 C 15.640625 6.578125 15.640625 6.75 15.640625 6.921875 C 16.0625 6.921875 16.488281 6.921875 16.921875 6.921875 C 16.78125 6.992188 16.636719 7.0625 16.488281 7.136719 C 16.085938 7.339844 15.683594 7.554688 15.289062 7.777344 C 13.539062 8.726562 13.539062 8.726562 12.402344 8.667969 C 12.203125 8.601562 12 8.53125 11.792969 8.460938 C 12.832031 7.257812 13.910156 6.707031 15.382812 6.152344 C 15.617188 6.066406 15.851562 5.976562 16.09375 5.886719 C 16.9375 5.636719 17.597656 5.582031 18.476562 5.589844 Z M 18.476562 5.589844 "/>
<path style=" stroke:none;fill-rule:nonzero;fill:rgb(63.921569%,85.490196%,96.078431%);fill-opacity:1;" d="M 7.949219 14.359375 C 8.035156 14.359375 8.117188 14.359375 8.207031 14.359375 C 8.464844 15.585938 8.609375 16.328125 7.964844 17.4375 C 7.789062 17.691406 7.617188 17.945312 7.4375 18.207031 C 7.183594 18.207031 6.929688 18.207031 6.667969 18.207031 C 6.554688 18.625 6.554688 18.625 6.441406 19.054688 C 6.152344 20 6.152344 20 5.640625 20.769531 C 5.664062 22.082031 5.691406 22.582031 6.554688 23.589844 C 6.761719 23.757812 6.96875 23.929688 7.179688 24.101562 C 7.09375 24.355469 7.011719 24.609375 6.921875 24.871094 C 5.054688 23.054688 5.054688 23.054688 5.015625 21.792969 C 5.039062 20.480469 5.53125 19.5 6.109375 18.339844 C 6.445312 17.617188 6.550781 16.9375 6.667969 16.152344 C 7.035156 15.738281 7.035156 15.738281 7.4375 15.382812 C 7.738281 14.847656 7.738281 14.847656 7.949219 14.359375 Z M 7.949219 14.359375 "/>
<path style=" stroke:none;fill-rule:nonzero;fill:rgb(64.705882%,84.313725%,87.058824%);fill-opacity:1;" d="M 28.972656 10 C 30.613281 10.09375 30.613281 10.09375 31.378906 10.882812 C 32.007812 11.875 32.078125 12.410156 32.050781 13.589844 C 31.605469 13.558594 31.605469 13.558594 31.027344 13.332031 C 30.476562 12.644531 30.476562 12.644531 29.9375 11.792969 C 29.753906 11.515625 29.574219 11.234375 29.386719 10.945312 C 28.972656 10.257812 28.972656 10.257812 28.972656 10 Z M 28.972656 10 "/>
<path style=" stroke:none;fill-rule:nonzero;fill:rgb(23.921569%,32.941176%,68.235294%);fill-opacity:1;" d="M 14.101562 30 C 14.617188 30.511719 14.617188 30.511719 14.648438 31.3125 C 14.636719 31.558594 14.625 31.800781 14.617188 32.050781 C 15.292969 32.304688 15.96875 32.558594 16.667969 32.820312 C 16.582031 32.988281 16.496094 33.160156 16.410156 33.332031 C 15.363281 33.179688 14.578125 32.835938 13.652344 32.324219 C 13.40625 32.1875 13.160156 32.054688 12.90625 31.917969 C 12.308594 31.539062 12.308594 31.539062 12.050781 31.027344 C 12.417969 30.914062 12.417969 30.914062 12.789062 30.800781 C 13.601562 30.570312 13.601562 30.570312 14.101562 30 Z M 14.101562 30 "/>
<path style=" stroke:none;fill-rule:nonzero;fill:rgb(30.980392%,39.215686%,82.352941%);fill-opacity:1;" d="M 28.972656 23.078125 C 29.101562 23.457031 29.101562 23.457031 29.230469 23.847656 C 28.40625 25.316406 28.40625 25.316406 27.4375 25.640625 C 27.4375 25.808594 27.4375 25.980469 27.4375 26.152344 C 24.90625 27.589844 23.121094 27.90625 20.257812 27.691406 C 20.257812 27.609375 20.257812 27.523438 20.257812 27.4375 C 20.46875 27.429688 20.683594 27.421875 20.90625 27.414062 C 23.484375 27.285156 25.371094 26.714844 27.4375 25.128906 C 28.011719 24.46875 28.488281 23.804688 28.972656 23.078125 Z M 28.972656 23.078125 "/>
<path style=" stroke:none;fill-rule:nonzero;fill:rgb(38.823529%,41.960784%,76.862745%);fill-opacity:1;" d="M 30.511719 28.460938 C 29.699219 30.4375 27.515625 31.921875 25.640625 32.820312 C 25.472656 32.820312 25.300781 32.820312 25.128906 32.820312 C 25.128906 32.308594 25.128906 32.308594 25.449219 31.890625 C 25.898438 31.539062 25.898438 31.539062 26.921875 31.539062 C 26.921875 31.371094 26.921875 31.199219 26.921875 31.027344 C 27.09375 30.855469 27.261719 30.6875 27.4375 30.511719 C 27.691406 30.511719 27.945312 30.511719 28.207031 30.511719 C 28.207031 30.34375 28.207031 30.175781 28.207031 30 C 28.578125 29.613281 28.578125 29.613281 29.070312 29.199219 C 29.3125 28.992188 29.3125 28.992188 29.558594 28.78125 C 30 28.460938 30 28.460938 30.511719 28.460938 Z M 30.511719 28.460938 "/>
<path style=" stroke:none;fill-rule:nonzero;fill:rgb(7.843137%,18.823529%,51.372549%);fill-opacity:1;" d="M 10 13.589844 C 10.167969 13.675781 10.339844 13.757812 10.511719 13.847656 C 10.257812 14.4375 10.003906 15.03125 9.742188 15.640625 C 9.574219 15.640625 9.40625 15.640625 9.230469 15.640625 C 9.230469 15.980469 9.230469 16.316406 9.230469 16.667969 C 9.0625 16.667969 8.890625 16.667969 8.71875 16.667969 C 8.71875 17.429688 8.71875 18.191406 8.71875 18.972656 C 8.378906 18.71875 8.042969 18.464844 7.691406 18.207031 C 7.847656 17.160156 8.1875 16.382812 8.703125 15.464844 C 8.835938 15.21875 8.972656 14.976562 9.109375 14.722656 C 9.488281 14.101562 9.488281 14.101562 10 13.589844 Z M 10 13.589844 "/>
<path style=" stroke:none;fill-rule:nonzero;fill:rgb(49.803922%,84.313725%,94.509804%);fill-opacity:1;" d="M 21.28125 21.792969 C 21.367188 22.046875 21.453125 22.300781 21.539062 22.5625 C 21.1875 22.949219 21.1875 22.949219 20.769531 23.332031 C 20.601562 23.332031 20.429688 23.332031 20.257812 23.332031 C 20.257812 23.585938 20.257812 23.839844 20.257812 24.101562 C 20.511719 24.019531 20.765625 23.933594 21.027344 23.847656 C 21.027344 24.015625 21.027344 24.183594 21.027344 24.359375 C 21.617188 24.359375 22.210938 24.359375 22.820312 24.359375 C 22.820312 24.445312 22.820312 24.527344 22.820312 24.617188 C 22.3125 24.621094 21.804688 24.628906 21.296875 24.632812 C 21.015625 24.632812 20.734375 24.636719 20.441406 24.640625 C 19.742188 24.617188 19.742188 24.617188 19.488281 24.359375 C 19.449219 23.675781 19.476562 22.992188 19.488281 22.308594 C 20.078125 22.308594 20.671875 22.308594 21.28125 22.308594 C 21.28125 22.136719 21.28125 21.96875 21.28125 21.792969 Z M 21.28125 21.792969 "/>
<path style=" stroke:none;fill-rule:nonzero;fill:rgb(16.078431%,24.313725%,50.196078%);fill-opacity:1;" d="M 17.949219 26.410156 C 18.164062 26.4375 18.164062 26.4375 18.382812 26.464844 C 20.792969 26.746094 23.246094 26.867188 25.640625 26.410156 C 24.628906 27.421875 23.347656 27.511719 21.972656 27.515625 C 20.476562 27.496094 19.328125 27.226562 17.949219 26.667969 C 17.949219 26.582031 17.949219 26.496094 17.949219 26.410156 Z M 17.949219 26.410156 "/>
<path style=" stroke:none;fill-rule:nonzero;fill:rgb(21.176471%,27.45098%,65.098039%);fill-opacity:1;" d="M 15.382812 10.257812 C 15.09375 10.371094 14.804688 10.488281 14.503906 10.609375 C 13.578125 10.914062 13.578125 10.914062 13.332031 11.539062 C 13.054688 11.679688 13.054688 11.679688 12.773438 11.828125 C 11.773438 12.492188 11.191406 13.378906 10.511719 14.359375 C 10.34375 14.019531 10.175781 13.683594 10 13.332031 C 13.425781 9.5 13.425781 9.5 15.382812 10.257812 Z M 15.382812 10.257812 "/>
<path style=" stroke:none;fill-rule:nonzero;fill:rgb(89.803922%,97.254902%,99.215686%);fill-opacity:1;" d="M 29.230469 10.769531 C 30.46875 11.808594 30.867188 12.8125 31.28125 14.359375 C 30.316406 13.921875 29.871094 13.414062 29.230469 12.5625 C 28.980469 12.304688 28.722656 12.042969 28.460938 11.792969 C 28.628906 11.710938 28.800781 11.625 28.972656 11.539062 C 29.058594 11.285156 29.144531 11.03125 29.230469 10.769531 Z M 29.230469 10.769531 "/>
<path style=" stroke:none;fill-rule:nonzero;fill:rgb(28.235294%,39.607843%,66.666667%);fill-opacity:1;" d="M 7.691406 25.128906 C 7.945312 25.128906 8.199219 25.128906 8.460938 25.128906 C 8.460938 25.296875 8.460938 25.464844 8.460938 25.640625 C 8.96875 25.894531 9.476562 26.148438 10 26.410156 C 9.945312 26.554688 9.894531 26.695312 9.839844 26.84375 C 9.714844 27.605469 9.933594 28.03125 10.257812 28.71875 C 10.003906 28.71875 9.75 28.71875 9.488281 28.71875 C 9.019531 28.0625 9.019531 28.0625 8.542969 27.210938 C 8.382812 26.933594 8.222656 26.652344 8.058594 26.363281 C 7.691406 25.640625 7.691406 25.640625 7.691406 25.128906 Z M 7.691406 25.128906 "/>
<path style=" stroke:none;fill-rule:nonzero;fill:rgb(83.529412%,96.470588%,98.039216%);fill-opacity:1;" d="M 9.488281 12.050781 C 9.570312 12.304688 9.65625 12.558594 9.742188 12.820312 C 9.804688 12.984375 9.863281 13.144531 9.925781 13.3125 C 10.027344 14.039062 9.804688 14.332031 9.40625 14.9375 C 9.292969 15.117188 9.175781 15.296875 9.058594 15.484375 C 8.945312 15.621094 8.832031 15.757812 8.71875 15.898438 C 8.546875 15.898438 8.378906 15.898438 8.207031 15.898438 C 8.03125 14.246094 8.523438 13.375 9.488281 12.050781 Z M 9.488281 12.050781 "/>
<path style=" stroke:none;fill-rule:nonzero;fill:rgb(73.72549%,94.117647%,99.607843%);fill-opacity:1;" d="M 32.050781 12.5625 C 32.453125 13.027344 32.453125 13.027344 32.820312 13.589844 C 32.734375 13.84375 32.652344 14.097656 32.5625 14.359375 C 32.476562 14.699219 32.390625 15.042969 32.308594 15.382812 C 31.96875 15.382812 31.628906 15.382812 31.28125 15.382812 C 30.90625 14.707031 30.769531 14.386719 30.769531 13.589844 C 30.855469 13.421875 30.9375 13.25 31.027344 13.078125 C 31.363281 13.246094 31.703125 13.414062 32.050781 13.589844 C 32.050781 13.25 32.050781 12.914062 32.050781 12.5625 Z M 32.050781 12.5625 "/>
<path style=" stroke:none;fill-rule:nonzero;fill:rgb(18.039216%,38.431373%,78.823529%);fill-opacity:1;" d="M 8.71875 18.71875 C 9.5625 19.507812 9.960938 19.992188 10.050781 21.179688 C 10.054688 21.421875 10.058594 21.667969 10.0625 21.921875 C 10.070312 22.167969 10.078125 22.414062 10.085938 22.667969 C 9.988281 23.425781 9.824219 23.640625 9.230469 24.101562 C 9.144531 23.933594 9.0625 23.765625 8.972656 23.589844 C 9.058594 23.421875 9.144531 23.25 9.230469 23.078125 C 9.261719 22.613281 9.277344 22.148438 9.277344 21.683594 C 9.28125 21.433594 9.285156 21.1875 9.289062 20.929688 C 9.28125 20.195312 9.28125 20.195312 8.71875 19.488281 C 8.71875 19.234375 8.71875 18.980469 8.71875 18.71875 Z M 8.71875 18.71875 "/>
<path style=" stroke:none;fill-rule:nonzero;fill:rgb(75.686275%,92.941176%,96.078431%);fill-opacity:1;" d="M 23.589844 5.898438 C 24.742188 6.039062 25.589844 6.328125 26.601562 6.890625 C 26.84375 7.023438 27.085938 7.152344 27.335938 7.289062 C 27.949219 7.691406 27.949219 7.691406 28.460938 8.460938 C 28.207031 8.589844 28.207031 8.589844 27.949219 8.71875 C 27.949219 8.546875 27.949219 8.378906 27.949219 8.207031 C 27.609375 8.121094 27.273438 8.035156 26.921875 7.949219 C 26.921875 7.78125 26.921875 7.609375 26.921875 7.4375 C 26.332031 7.351562 25.738281 7.265625 25.128906 7.179688 C 25.128906 7.011719 25.128906 6.839844 25.128906 6.667969 C 24.96875 6.636719 24.8125 6.601562 24.648438 6.570312 C 24.101562 6.410156 24.101562 6.410156 23.589844 5.898438 Z M 23.589844 5.898438 "/>
<path style=" stroke:none;fill-rule:nonzero;fill:rgb(28.627451%,34.901961%,80.784314%);fill-opacity:1;" d="M 23.589844 10 C 25.46875 10.042969 26.703125 10.402344 28.207031 11.539062 C 27.527344 11.796875 27.246094 11.820312 26.554688 11.558594 C 26.335938 11.441406 26.121094 11.324219 25.898438 11.203125 C 25.679688 11.085938 25.464844 10.972656 25.242188 10.851562 C 25.035156 10.742188 24.828125 10.628906 24.617188 10.511719 C 24.273438 10.339844 23.933594 10.167969 23.589844 10 Z M 23.589844 10 "/>
<path style=" stroke:none;fill-rule:nonzero;fill:rgb(67.058824%,88.627451%,91.764706%);fill-opacity:1;" d="M 31.539062 11.539062 C 32.050781 12.050781 32.050781 12.050781 32.082031 12.851562 C 32.074219 13.097656 32.0625 13.339844 32.050781 13.589844 C 31.570312 13.527344 31.570312 13.527344 31.027344 13.332031 C 30.6875 12.835938 30.6875 12.835938 30.511719 12.308594 C 30.769531 11.792969 30.769531 11.792969 31.539062 11.539062 Z M 31.539062 11.539062 "/>
<path style=" stroke:none;fill-rule:nonzero;fill:rgb(29.019608%,32.941176%,87.45098%);fill-opacity:1;" d="M 15.382812 10.511719 C 14.0625 11.472656 12.757812 12.367188 11.28125 13.078125 C 12.207031 11.875 12.207031 11.875 12.5625 11.539062 C 12.816406 11.539062 13.070312 11.539062 13.332031 11.539062 C 13.417969 11.285156 13.503906 11.03125 13.589844 10.769531 C 14.730469 10.183594 14.730469 10.183594 15.382812 10.511719 Z M 15.382812 10.511719 "/>
<path style=" stroke:none;fill-rule:nonzero;fill:rgb(53.333333%,80.784314%,89.803922%);fill-opacity:1;" d="M 12.5 8.527344 C 12.691406 8.589844 12.878906 8.652344 13.078125 8.71875 C 12.316406 9.328125 11.554688 9.933594 10.769531 10.511719 C 10.769531 9.488281 10.769531 9.488281 11.203125 8.894531 C 11.792969 8.460938 11.792969 8.460938 12.5 8.527344 Z M 12.5 8.527344 "/>
<path style=" stroke:none;fill-rule:nonzero;fill:rgb(22.352941%,28.235294%,77.254902%);fill-opacity:1;" d="M 17.414062 31.921875 C 17.6875 32.023438 17.6875 32.023438 17.964844 32.132812 C 18.148438 32.199219 18.332031 32.265625 18.519531 32.335938 C 18.972656 32.5625 18.972656 32.5625 19.230469 33.078125 C 18.46875 33.078125 17.707031 33.078125 16.921875 33.078125 C 16.921875 32.90625 16.921875 32.738281 16.921875 32.5625 C 16.753906 32.394531 16.585938 32.226562 16.410156 32.050781 C 16.921875 31.792969 16.921875 31.792969 17.414062 31.921875 Z M 17.414062 31.921875 "/>
<path style=" stroke:none;fill-rule:nonzero;fill:rgb(10.196078%,26.27451%,62.352941%);fill-opacity:1;" d="M 9.230469 23.847656 C 9.390625 24.710938 9.390625 24.710938 9.488281 25.640625 C 9.316406 25.808594 9.148438 25.980469 8.972656 26.152344 C 8.71875 25.984375 8.464844 25.816406 8.207031 25.640625 C 8.289062 25.472656 8.375 25.300781 8.460938 25.128906 C 8.207031 25.042969 7.953125 24.957031 7.691406 24.871094 C 8.941406 23.847656 8.941406 23.847656 9.230469 23.847656 Z M 9.230469 23.847656 "/>
<path style=" stroke:none;fill-rule:nonzero;fill:rgb(75.294118%,93.72549%,99.215686%);fill-opacity:1;" d="M 33.332031 17.179688 C 33.402344 17.324219 33.472656 17.464844 33.542969 17.613281 C 33.847656 18.230469 33.847656 18.230469 34.277344 18.878906 C 34.390625 19.078125 34.5 19.28125 34.617188 19.488281 C 34.53125 19.65625 34.445312 19.824219 34.359375 20 C 34.191406 19.914062 34.019531 19.832031 33.847656 19.742188 C 33.847656 19.574219 33.847656 19.40625 33.847656 19.230469 C 33.59375 19.230469 33.339844 19.230469 33.078125 19.230469 C 33.066406 18.632812 33.066406 18.035156 33.078125 17.4375 C 33.160156 17.351562 33.246094 17.265625 33.332031 17.179688 Z M 33.332031 17.179688 "/>
<path style=" stroke:none;fill-rule:nonzero;fill:rgb(59.215686%,84.313725%,93.333333%);fill-opacity:1;" d="M 21.027344 5.898438 C 21.703125 5.898438 22.378906 5.898438 23.078125 5.898438 C 22.90625 6.066406 22.738281 6.234375 22.5625 6.410156 C 22.734375 6.578125 22.902344 6.75 23.078125 6.921875 C 21.300781 6.796875 21.300781 6.796875 19.488281 6.667969 C 19.488281 6.582031 19.488281 6.496094 19.488281 6.410156 C 19.996094 6.410156 20.503906 6.410156 21.027344 6.410156 C 21.027344 6.242188 21.027344 6.070312 21.027344 5.898438 Z M 21.027344 5.898438 "/>
<path style=" stroke:none;fill-rule:nonzero;fill:rgb(35.294118%,39.215686%,61.176471%);fill-opacity:1;" d="M 13.078125 31.792969 C 13.5 31.792969 13.921875 31.792969 14.359375 31.792969 C 14.359375 31.964844 14.359375 32.132812 14.359375 32.308594 C 14.644531 32.355469 14.644531 32.355469 14.9375 32.402344 C 15.589844 32.550781 16.082031 32.753906 16.667969 33.078125 C 15.964844 33.351562 15.695312 33.355469 14.980469 33.078125 C 14.753906 32.957031 14.527344 32.835938 14.292969 32.707031 C 14.066406 32.585938 13.835938 32.464844 13.601562 32.339844 C 13.429688 32.246094 13.253906 32.148438 13.078125 32.050781 C 13.078125 31.964844 13.078125 31.882812 13.078125 31.792969 Z M 13.078125 31.792969 "/>
<path style=" stroke:none;fill-rule:nonzero;fill:rgb(44.313725%,48.235294%,78.823529%);fill-opacity:1;" d="M 30.511719 28.460938 C 30.160156 29.285156 29.761719 29.757812 29.070312 30.320312 C 28.828125 30.519531 28.828125 30.519531 28.578125 30.726562 C 28.457031 30.824219 28.332031 30.921875 28.207031 31.027344 C 28.207031 30 28.207031 30 28.578125 29.5625 C 28.742188 29.433594 28.902344 29.300781 29.070312 29.167969 C 29.230469 29.03125 29.390625 28.898438 29.558594 28.761719 C 30 28.460938 30 28.460938 30.511719 28.460938 Z M 30.511719 28.460938 "/>
<path style=" stroke:none;fill-rule:nonzero;fill:rgb(64.705882%,84.705882%,92.54902%);fill-opacity:1;" d="M 11.28125 8.460938 C 11.453125 8.546875 11.621094 8.628906 11.792969 8.71875 C 11.632812 8.867188 11.46875 9.015625 11.296875 9.167969 C 10.773438 9.738281 10.621094 10.019531 10.511719 10.769531 C 10.34375 10.683594 10.175781 10.601562 10 10.511719 C 10 10.683594 10 10.851562 10 11.027344 C 9.746094 11.027344 9.492188 11.027344 9.230469 11.027344 C 9.652344 9.925781 10.445312 9.261719 11.28125 8.460938 Z M 11.28125 8.460938 "/>
<path style=" stroke:none;fill-rule:nonzero;fill:rgb(52.54902%,76.078431%,87.843137%);fill-opacity:1;" d="M 10 10.511719 C 10.167969 10.511719 10.339844 10.511719 10.511719 10.511719 C 10.054688 11.550781 9.386719 12.425781 8.71875 13.332031 C 8.632812 13.164062 8.546875 12.996094 8.460938 12.820312 C 8.703125 12.214844 8.957031 11.617188 9.230469 11.027344 C 9.484375 11.027344 9.738281 11.027344 10 11.027344 C 10 10.855469 10 10.6875 10 10.511719 Z M 10 10.511719 "/>
<path style=" stroke:none;fill-rule:nonzero;fill:rgb(54.117647%,78.431373%,90.980392%);fill-opacity:1;" d="M 18.496094 6.078125 C 18.796875 6.085938 19.097656 6.097656 19.40625 6.105469 C 19.859375 6.117188 19.859375 6.117188 20.324219 6.125 C 20.554688 6.136719 20.785156 6.144531 21.027344 6.152344 C 21.027344 6.238281 21.027344 6.324219 21.027344 6.410156 C 19.671875 6.578125 18.316406 6.75 16.921875 6.921875 C 17.691406 6.152344 17.691406 6.152344 18.496094 6.078125 Z M 18.496094 6.078125 "/>
<path style=" stroke:none;fill-rule:nonzero;fill:rgb(47.843137%,90.196078%,99.607843%);fill-opacity:1;" d="M 8.71875 20 C 8.972656 20.085938 9.226562 20.167969 9.488281 20.257812 C 9.488281 21.019531 9.488281 21.78125 9.488281 22.5625 C 9.316406 22.480469 9.148438 22.394531 8.972656 22.308594 C 8.867188 21.777344 8.867188 21.777344 8.8125 21.136719 C 8.796875 20.925781 8.777344 20.714844 8.757812 20.496094 C 8.742188 20.332031 8.730469 20.167969 8.71875 20 Z M 8.71875 20 "/>
<path style=" stroke:none;fill-rule:nonzero;fill:rgb(14.509804%,32.941176%,47.058824%);fill-opacity:1;" d="M 24.359375 18.460938 C 24.445312 18.460938 24.527344 18.460938 24.617188 18.460938 C 24.699219 19.984375 24.785156 21.507812 24.871094 23.078125 C 24.617188 23.160156 24.363281 23.246094 24.101562 23.332031 C 24.1875 21.726562 24.273438 20.117188 24.359375 18.460938 Z M 24.359375 18.460938 "/>
<path style=" stroke:none;fill-rule:nonzero;fill:rgb(59.215686%,81.960784%,89.803922%);fill-opacity:1;" d="M 28.972656 10 C 29.566406 10.085938 30.160156 10.167969 30.769531 10.257812 C 30.769531 10.59375 30.769531 10.933594 30.769531 11.28125 C 30.429688 11.367188 30.09375 11.453125 29.742188 11.539062 C 29.488281 11.03125 29.234375 10.523438 28.972656 10 Z M 28.972656 10 "/>
<path style=" stroke:none;fill-rule:nonzero;fill:rgb(64.313725%,88.235294%,93.72549%);fill-opacity:1;" d="M 15.640625 6.667969 C 16.070312 6.738281 16.5 6.820312 16.921875 6.921875 C 16.246094 7.296875 15.925781 7.4375 15.128906 7.4375 C 15.128906 7.265625 15.128906 7.097656 15.128906 6.921875 C 14.453125 7.09375 13.773438 7.261719 13.078125 7.4375 C 13.773438 6.453125 14.511719 6.589844 15.640625 6.667969 Z M 15.640625 6.667969 "/>
<path style=" stroke:none;fill-rule:nonzero;fill:rgb(74.901961%,92.156863%,96.078431%);fill-opacity:1;" d="M 32.050781 12.5625 C 32.453125 13.027344 32.453125 13.027344 32.820312 13.589844 C 32.5625 14.359375 32.5625 14.359375 32.308594 14.871094 C 32.136719 14.871094 31.96875 14.871094 31.792969 14.871094 C 31.792969 14.535156 31.792969 14.195312 31.792969 13.847656 C 31.625 13.761719 31.457031 13.675781 31.28125 13.589844 C 31.535156 13.589844 31.789062 13.589844 32.050781 13.589844 C 32.050781 13.25 32.050781 12.914062 32.050781 12.5625 Z M 32.050781 12.5625 "/>
<path style=" stroke:none;fill-rule:nonzero;fill:rgb(60%,85.882353%,94.901961%);fill-opacity:1;" d="M 5.382812 22.050781 C 5.636719 22.433594 5.636719 22.433594 5.898438 22.820312 C 6.320312 23.253906 6.746094 23.679688 7.179688 24.101562 C 7.09375 24.355469 7.011719 24.609375 6.921875 24.871094 C 5.382812 23.332031 5.382812 23.332031 5.367188 22.675781 C 5.375 22.46875 5.378906 22.265625 5.382812 22.050781 Z M 5.382812 22.050781 "/>
<path style=" stroke:none;fill-rule:nonzero;fill:rgb(16.078431%,23.529412%,44.313725%);fill-opacity:1;" d="M 28.972656 22.050781 C 29.144531 22.050781 29.3125 22.050781 29.488281 22.050781 C 29.144531 22.972656 28.726562 23.785156 28.207031 24.617188 C 27.949219 23.847656 27.949219 23.847656 28.148438 23.378906 C 28.421875 22.9375 28.699219 22.492188 28.972656 22.050781 Z M 28.972656 22.050781 "/>
<path style=" stroke:none;fill-rule:nonzero;fill:rgb(67.45098%,91.372549%,98.039216%);fill-opacity:1;" d="M 32.820312 23.078125 C 33.242188 23.160156 33.667969 23.246094 34.101562 23.332031 C 34.019531 23.585938 33.933594 23.839844 33.847656 24.101562 C 33.1875 24.40625 33.1875 24.40625 32.5625 24.617188 C 32.648438 24.109375 32.734375 23.601562 32.820312 23.078125 Z M 32.820312 23.078125 "/>
<path style=" stroke:none;fill-rule:nonzero;fill:rgb(28.627451%,37.254902%,81.176471%);fill-opacity:1;" d="M 14.617188 15.640625 C 14.785156 15.726562 14.953125 15.808594 15.128906 15.898438 C 14.707031 16.742188 14.28125 17.589844 13.847656 18.460938 C 13.558594 17.601562 13.589844 17.261719 13.847656 16.410156 C 14.246094 15.945312 14.246094 15.945312 14.617188 15.640625 Z M 14.617188 15.640625 "/>
<path style=" stroke:none;fill-rule:nonzero;fill:rgb(25.882353%,39.607843%,86.666667%);fill-opacity:1;" d="M 31.027344 15.382812 C 31.195312 15.382812 31.363281 15.382812 31.539062 15.382812 C 31.914062 16.0625 32.050781 16.382812 32.050781 17.179688 C 31.554688 16.972656 31.554688 16.972656 31.027344 16.667969 C 30.941406 16.414062 30.855469 16.160156 30.769531 15.898438 C 30.855469 15.726562 30.9375 15.558594 31.027344 15.382812 Z M 31.027344 15.382812 "/>
<path style=" stroke:none;fill-rule:nonzero;fill:rgb(15.294118%,23.529412%,47.843137%);fill-opacity:1;" d="M 17.179688 13.589844 C 17.347656 13.675781 17.519531 13.757812 17.691406 13.847656 C 17.398438 14.066406 17.398438 14.066406 17.097656 14.292969 C 16.496094 14.800781 16.078125 15.253906 15.640625 15.898438 C 15.472656 15.8125 15.300781 15.726562 15.128906 15.640625 C 15.371094 15.347656 15.617188 15.054688 15.867188 14.757812 C 16.003906 14.597656 16.140625 14.433594 16.28125 14.265625 C 16.667969 13.847656 16.667969 13.847656 17.179688 13.589844 Z M 17.179688 13.589844 "/>
<path style=" stroke:none;fill-rule:nonzero;fill:rgb(81.176471%,96.078431%,98.823529%);fill-opacity:1;" d="M 30.257812 12.050781 C 30.945312 12.738281 31.042969 13.429688 31.28125 14.359375 C 30.472656 14.007812 30.257812 13.847656 29.742188 13.078125 C 29.914062 13.078125 30.082031 13.078125 30.257812 13.078125 C 30.257812 12.738281 30.257812 12.398438 30.257812 12.050781 Z M 30.257812 12.050781 "/>
<path style=" stroke:none;fill-rule:nonzero;fill:rgb(43.921569%,50.588235%,81.568627%);fill-opacity:1;" d="M 31.792969 25.382812 C 31.964844 25.46875 32.132812 25.554688 32.308594 25.640625 C 31.96875 26.316406 31.628906 26.996094 31.28125 27.691406 C 31.199219 27.691406 31.113281 27.691406 31.027344 27.691406 C 31.027344 27.269531 31.027344 26.847656 31.027344 26.410156 C 31.195312 26.410156 31.363281 26.410156 31.539062 26.410156 C 31.625 26.070312 31.707031 25.734375 31.792969 25.382812 Z M 31.792969 25.382812 "/>
<path style=" stroke:none;fill-rule:nonzero;fill:rgb(16.862745%,27.058824%,34.901961%);fill-opacity:1;" d="M 14.101562 18.972656 C 14.355469 19.3125 14.609375 19.652344 14.871094 20 C 14.703125 20.339844 14.535156 20.675781 14.359375 21.027344 C 14.191406 21.027344 14.019531 21.027344 13.847656 21.027344 C 13.929688 20.347656 14.015625 19.671875 14.101562 18.972656 Z M 14.101562 18.972656 "/>
<path style=" stroke:none;fill-rule:nonzero;fill:rgb(73.72549%,93.333333%,97.647059%);fill-opacity:1;" d="M 8.460938 13.589844 C 8.546875 13.589844 8.628906 13.589844 8.71875 13.589844 C 9.007812 15.320312 9.007812 15.320312 8.71875 15.898438 C 8.546875 15.898438 8.378906 15.898438 8.207031 15.898438 C 8.171875 14.167969 8.171875 14.167969 8.460938 13.589844 Z M 8.460938 13.589844 "/>
<path style=" stroke:none;fill-rule:nonzero;fill:rgb(65.882353%,88.627451%,97.254902%);fill-opacity:1;" d="M 7.949219 14.359375 C 8.035156 14.359375 8.117188 14.359375 8.207031 14.359375 C 8.289062 15.035156 8.375 15.710938 8.460938 16.410156 C 8.207031 16.410156 7.953125 16.410156 7.691406 16.410156 C 7.679688 15.8125 7.683594 15.214844 7.691406 14.617188 C 7.777344 14.53125 7.863281 14.445312 7.949219 14.359375 Z M 7.949219 14.359375 "/>
<path style=" stroke:none;fill-rule:nonzero;fill:rgb(90.588235%,90.588235%,100%);fill-opacity:1;" d="M 24.359375 4.359375 C 24.867188 4.484375 24.867188 4.484375 25.382812 4.617188 C 25.300781 4.785156 25.214844 4.953125 25.128906 5.128906 C 24.789062 5.042969 24.453125 4.957031 24.101562 4.871094 C 24.1875 4.703125 24.273438 4.535156 24.359375 4.359375 Z M 24.359375 4.359375 "/>
</g>
</svg>
