<?xml version="1.0" encoding="UTF-8"?>
<svg xmlns="http://www.w3.org/2000/svg" xmlns:xlink="http://www.w3.org/1999/xlink" width="16px" height="16px" viewBox="0 0 16 16" version="1.1">
<g id="surface1">
<path style=" stroke:none;fill-rule:nonzero;fill:rgb(28.235294%,37.254902%,90.196078%);fill-opacity:1;" d="M 8.050781 2.21875 C 8.160156 2.214844 8.273438 2.214844 8.386719 2.214844 C 9.296875 2.21875 10.023438 2.382812 10.800781 2.871094 C 10.882812 2.921875 10.964844 2.972656 11.050781 3.027344 C 11.492188 3.320312 11.492188 3.320312 11.691406 3.488281 C 11.691406 3.554688 11.691406 3.621094 11.691406 3.691406 C 11.753906 3.71875 11.816406 3.746094 11.878906 3.773438 C 12.109375 3.902344 12.238281 4.019531 12.410156 4.21875 C 12.457031 4.273438 12.507812 4.328125 12.558594 4.386719 C 13.042969 5.082031 13.226562 5.777344 13.375 6.601562 C 13.457031 7 13.542969 7.320312 13.753906 7.664062 C 14.027344 8.132812 14.035156 8.5 13.949219 9.027344 C 13.664062 9.59375 13.664062 9.59375 13.339844 9.71875 C 13.019531 9.910156 12.949219 10.175781 12.800781 10.511719 C 12.195312 11.800781 11.210938 12.761719 9.871094 13.269531 C 8.535156 13.730469 7.027344 13.683594 5.742188 13.085938 C 5.269531 12.835938 4.796875 12.578125 4.410156 12.207031 C 4.410156 12.136719 4.410156 12.070312 4.410156 12 C 4.34375 12 4.273438 12 4.207031 12 C 4.046875 11.808594 4.046875 11.808594 3.867188 11.542969 C 3.800781 11.453125 3.738281 11.359375 3.671875 11.261719 C 3.507812 11.003906 3.363281 10.746094 3.222656 10.472656 C 3.003906 10.0625 2.761719 9.886719 2.359375 9.640625 C 2.042969 9.273438 1.992188 8.933594 2.007812 8.460938 C 2.074219 8.0625 2.253906 7.734375 2.429688 7.375 C 2.570312 7.066406 2.648438 6.777344 2.722656 6.449219 C 3.078125 4.929688 3.929688 3.6875 5.25 2.828125 C 5.445312 2.726562 5.640625 2.644531 5.847656 2.5625 C 5.941406 2.523438 5.941406 2.523438 6.042969 2.484375 C 6.714844 2.226562 7.339844 2.210938 8.050781 2.21875 Z M 8.050781 2.21875 "/>
<path style=" stroke:none;fill-rule:nonzero;fill:rgb(17.647059%,27.058824%,42.352941%);fill-opacity:1;" d="M 10.871094 5.332031 C 11.417969 5.789062 11.703125 6.296875 11.898438 6.972656 C 11.898438 7.109375 11.898438 7.246094 11.898438 7.382812 C 11.964844 7.382812 12.03125 7.382812 12.101562 7.382812 C 12.175781 8.359375 11.835938 9.125 11.230469 9.878906 C 10.71875 10.453125 9.925781 10.9375 9.148438 10.996094 C 8.160156 11.007812 7.34375 10.902344 6.5625 10.257812 C 5.855469 9.46875 5.351562 8.816406 5.382812 7.722656 C 5.53125 6.789062 6.097656 5.976562 6.828125 5.394531 C 8.070312 4.582031 9.605469 4.558594 10.871094 5.332031 Z M 10.871094 5.332031 "/>
<path style=" stroke:none;fill-rule:nonzero;fill:rgb(57.647059%,83.921569%,92.156863%);fill-opacity:1;" d="M 8.050781 2.21875 C 8.160156 2.214844 8.273438 2.214844 8.386719 2.214844 C 9.296875 2.21875 10.023438 2.382812 10.800781 2.871094 C 10.882812 2.921875 10.964844 2.972656 11.050781 3.027344 C 11.492188 3.320312 11.492188 3.320312 11.691406 3.488281 C 11.691406 3.554688 11.691406 3.621094 11.691406 3.691406 C 11.753906 3.71875 11.816406 3.746094 11.878906 3.773438 C 12.109375 3.902344 12.238281 4.019531 12.410156 4.21875 C 12.457031 4.273438 12.507812 4.328125 12.558594 4.386719 C 13.042969 5.082031 13.226562 5.777344 13.375 6.601562 C 13.457031 7 13.542969 7.320312 13.753906 7.664062 C 14.027344 8.132812 14.035156 8.5 13.949219 9.027344 C 13.714844 9.515625 13.523438 9.667969 13.027344 9.847656 C 13.03125 9.769531 13.035156 9.695312 13.039062 9.613281 C 13.164062 7.476562 13.164062 7.476562 12.207031 5.640625 C 12.121094 5.535156 12.039062 5.429688 11.949219 5.320312 C 11.015625 4.257812 9.660156 3.65625 8.269531 3.566406 C 6.75 3.527344 5.441406 4.035156 4.324219 5.078125 C 3.832031 5.648438 3.210938 6.515625 3.179688 7.28125 C 3.300781 7.480469 3.300781 7.480469 3.480469 7.652344 C 3.832031 8.085938 3.875 8.417969 3.84375 8.96875 C 3.773438 9.34375 3.640625 9.570312 3.382812 9.847656 C 3.152344 9.988281 3.152344 9.988281 2.972656 10.050781 C 2.546875 9.792969 2.238281 9.601562 2.050781 9.128906 C 1.929688 8.449219 2.132812 7.972656 2.429688 7.375 C 2.570312 7.066406 2.648438 6.777344 2.722656 6.449219 C 3.078125 4.929688 3.929688 3.6875 5.25 2.828125 C 5.445312 2.726562 5.640625 2.644531 5.847656 2.5625 C 5.941406 2.523438 5.941406 2.523438 6.042969 2.484375 C 6.714844 2.226562 7.339844 2.210938 8.050781 2.21875 Z M 8.050781 2.21875 "/>
<path style=" stroke:none;fill-rule:nonzero;fill:rgb(19.607843%,29.411765%,70.980392%);fill-opacity:1;" d="M 10.871094 4.308594 C 11.140625 4.542969 11.140625 4.542969 11.28125 4.71875 C 10.835938 4.660156 10.472656 4.492188 10.070312 4.300781 C 9.859375 4.210938 9.660156 4.152344 9.4375 4.101562 C 9.4375 4 9.4375 3.898438 9.4375 3.792969 C 9.0625 3.785156 8.6875 3.78125 8.3125 3.777344 C 8.210938 3.773438 8.105469 3.769531 7.996094 3.769531 C 7.320312 3.761719 6.777344 3.84375 6.152344 4.101562 C 6.085938 4.128906 6.015625 4.15625 5.941406 4.183594 C 5.566406 4.316406 5.566406 4.316406 5.332031 4.617188 C 5.253906 4.660156 5.179688 4.703125 5.097656 4.746094 C 4.769531 4.957031 4.605469 5.175781 4.382812 5.492188 C 4.277344 5.644531 4.277344 5.644531 4.171875 5.796875 C 4 6.035156 4 6.035156 3.898438 6.257812 C 3.828125 6.257812 3.761719 6.257812 3.691406 6.257812 C 3.691406 6.390625 3.691406 6.527344 3.691406 6.667969 C 3.625 6.667969 3.558594 6.667969 3.488281 6.667969 C 3.445312 7.203125 3.445312 7.203125 3.6875 7.667969 C 3.753906 7.742188 3.824219 7.820312 3.898438 7.898438 C 4.003906 8.210938 4.015625 8.441406 4.019531 8.769531 C 4.019531 8.867188 4.023438 8.964844 4.023438 9.066406 C 4 9.332031 4 9.332031 3.792969 9.640625 C 3.757812 9.945312 3.757812 10.097656 3.921875 10.359375 C 4.957031 11.46875 6.15625 12.476562 7.589844 13.027344 C 7.625 13.058594 7.65625 13.09375 7.691406 13.128906 C 7.972656 13.136719 8.25 13.140625 8.53125 13.140625 C 8.609375 13.140625 8.6875 13.140625 8.765625 13.140625 C 9.207031 13.140625 9.617188 13.113281 10.050781 13.027344 C 10.050781 13.09375 10.050781 13.160156 10.050781 13.230469 C 8.453125 13.675781 6.9375 13.71875 5.441406 12.929688 C 5.074219 12.714844 4.71875 12.503906 4.410156 12.207031 C 4.410156 12.136719 4.410156 12.070312 4.410156 12 C 4.34375 12 4.273438 12 4.207031 12 C 3.941406 11.675781 3.714844 11.324219 3.488281 10.972656 C 3.441406 10.902344 3.394531 10.832031 3.34375 10.761719 C 3.191406 10.515625 3.078125 10.324219 3.078125 10.03125 C 3.210938 9.789062 3.386719 9.625 3.589844 9.4375 C 3.792969 9.027344 3.757812 8.546875 3.691406 8.101562 C 3.550781 7.859375 3.398438 7.671875 3.203125 7.472656 C 3.078125 7.28125 3.078125 7.28125 3.09375 7.035156 C 3.546875 5.632812 4.519531 4.625 5.804688 3.960938 C 7.464844 3.167969 9.308594 3.34375 10.871094 4.308594 Z M 10.871094 4.308594 "/>
<path style=" stroke:none;fill-rule:nonzero;fill:rgb(95.294118%,98.431373%,99.607843%);fill-opacity:1;" d="M 11.0625 3.703125 C 11.839844 4.316406 12.28125 4.777344 12.511719 5.742188 C 12.242188 5.636719 12.113281 5.550781 11.9375 5.3125 C 11.136719 4.367188 9.839844 3.714844 8.617188 3.589844 C 7.03125 3.488281 5.765625 3.875 4.53125 4.898438 C 4.128906 5.269531 3.867188 5.679688 3.609375 6.164062 C 3.570312 6.226562 3.527344 6.292969 3.488281 6.359375 C 3.417969 6.359375 3.351562 6.359375 3.28125 6.359375 C 3.179688 5.699219 3.425781 5.320312 3.796875 4.785156 C 4.542969 3.785156 5.675781 3.019531 6.898438 2.707031 C 8.460938 2.480469 9.789062 2.761719 11.0625 3.703125 Z M 11.0625 3.703125 "/>
<path style=" stroke:none;fill-rule:nonzero;fill:rgb(50.980392%,89.019608%,98.431373%);fill-opacity:1;" d="M 8.617188 5.949219 C 8.988281 5.949219 9.359375 5.949219 9.742188 5.949219 C 9.753906 6.390625 9.761719 6.832031 9.765625 7.273438 C 9.769531 7.421875 9.769531 7.574219 9.773438 7.722656 C 9.78125 7.941406 9.78125 8.15625 9.785156 8.371094 C 9.785156 8.503906 9.789062 8.632812 9.789062 8.765625 C 9.734375 9.191406 9.601562 9.410156 9.332031 9.742188 C 9.050781 9.882812 8.820312 9.859375 8.507812 9.859375 C 8.339844 9.859375 8.339844 9.859375 8.167969 9.859375 C 7.898438 9.847656 7.898438 9.847656 7.792969 9.742188 C 7.78125 9.46875 7.789062 9.199219 7.792969 8.921875 C 8.03125 8.921875 8.269531 8.921875 8.511719 8.921875 C 8.546875 7.941406 8.582031 6.960938 8.617188 5.949219 Z M 8.617188 5.949219 "/>
<path style=" stroke:none;fill-rule:nonzero;fill:rgb(65.490196%,85.098039%,93.333333%);fill-opacity:1;" d="M 9.4375 2.359375 C 10.269531 2.460938 11.085938 2.902344 11.691406 3.488281 C 11.691406 3.554688 11.691406 3.621094 11.691406 3.691406 C 11.785156 3.734375 11.785156 3.734375 11.878906 3.773438 C 12.109375 3.902344 12.238281 4.019531 12.410156 4.21875 C 12.484375 4.300781 12.484375 4.300781 12.558594 4.386719 C 13.042969 5.082031 13.226562 5.777344 13.375 6.601562 C 13.457031 7 13.542969 7.320312 13.753906 7.664062 C 14.027344 8.132812 14.035156 8.5 13.949219 9.027344 C 13.714844 9.515625 13.523438 9.667969 13.027344 9.847656 C 13.03125 9.769531 13.03125 9.691406 13.035156 9.613281 C 13.167969 7.695312 13.167969 7.695312 12.464844 5.96875 C 12.308594 5.742188 12.308594 5.742188 12.308594 5.4375 C 12 4.558594 11.355469 4.082031 10.667969 3.488281 C 10.769531 3.488281 10.871094 3.488281 10.972656 3.488281 C 11.007812 3.417969 11.042969 3.351562 11.078125 3.28125 C 10.976562 3.25 10.875 3.214844 10.769531 3.179688 C 10.769531 3.113281 10.769531 3.042969 10.769531 2.972656 C 10.53125 2.941406 10.296875 2.90625 10.050781 2.871094 C 10.050781 2.804688 10.050781 2.738281 10.050781 2.667969 C 9.988281 2.652344 9.925781 2.640625 9.859375 2.628906 C 9.640625 2.5625 9.640625 2.5625 9.4375 2.359375 Z M 9.4375 2.359375 "/>
<path style=" stroke:none;fill-rule:nonzero;fill:rgb(43.137255%,86.27451%,98.823529%);fill-opacity:1;" d="M 2.972656 7.078125 C 3.511719 7.582031 3.808594 7.910156 3.839844 8.660156 C 3.824219 9.164062 3.738281 9.464844 3.382812 9.847656 C 3.152344 9.988281 3.152344 9.988281 2.972656 10.050781 C 2.949219 9.996094 2.929688 9.9375 2.902344 9.878906 C 2.773438 9.621094 2.773438 9.621094 2.507812 9.410156 C 2.25 9.121094 2.15625 8.925781 2.125 8.539062 C 2.183594 8.074219 2.429688 7.679688 2.667969 7.28125 C 2.769531 7.28125 2.871094 7.28125 2.972656 7.28125 C 2.972656 7.214844 2.972656 7.148438 2.972656 7.078125 Z M 2.972656 7.078125 "/>
<path style=" stroke:none;fill-rule:nonzero;fill:rgb(27.058824%,31.764706%,66.666667%);fill-opacity:1;" d="M 5.640625 12 C 5.789062 12.085938 5.789062 12.085938 5.9375 12.171875 C 6.066406 12.246094 6.195312 12.324219 6.328125 12.398438 C 6.421875 12.453125 6.421875 12.453125 6.519531 12.511719 C 6.871094 12.710938 7.210938 12.882812 7.589844 13.027344 C 7.625 13.058594 7.65625 13.09375 7.691406 13.128906 C 7.972656 13.136719 8.25 13.140625 8.53125 13.140625 C 8.648438 13.140625 8.648438 13.140625 8.765625 13.140625 C 9.207031 13.140625 9.617188 13.113281 10.050781 13.027344 C 10.050781 13.09375 10.050781 13.160156 10.050781 13.230469 C 8.285156 13.722656 6.746094 13.664062 5.136719 12.757812 C 4.921875 12.617188 4.921875 12.617188 4.820312 12.410156 C 4.964844 12.367188 4.964844 12.367188 5.117188 12.320312 C 5.441406 12.230469 5.441406 12.230469 5.640625 12 Z M 5.640625 12 "/>
<path style=" stroke:none;fill-rule:nonzero;fill:rgb(32.156863%,38.823529%,76.078431%);fill-opacity:1;" d="M 10.871094 4.308594 C 11.140625 4.542969 11.140625 4.542969 11.28125 4.71875 C 10.835938 4.660156 10.472656 4.492188 10.070312 4.300781 C 9.859375 4.210938 9.660156 4.152344 9.4375 4.101562 C 9.4375 4 9.4375 3.898438 9.4375 3.792969 C 9.0625 3.785156 8.6875 3.78125 8.3125 3.777344 C 8.210938 3.773438 8.105469 3.769531 7.996094 3.769531 C 7.320312 3.761719 6.777344 3.84375 6.152344 4.101562 C 6.085938 4.128906 6.015625 4.15625 5.941406 4.183594 C 5.566406 4.316406 5.566406 4.316406 5.332031 4.617188 C 5.222656 4.671875 5.222656 4.671875 5.109375 4.730469 C 4.710938 4.996094 4.476562 5.351562 4.207031 5.742188 C 4.136719 5.609375 4.070312 5.472656 4 5.332031 C 5.769531 3.3125 8.578125 2.898438 10.871094 4.308594 Z M 10.871094 4.308594 "/>
<path style=" stroke:none;fill-rule:nonzero;fill:rgb(57.647059%,87.058824%,98.823529%);fill-opacity:1;" d="M 13.128906 7.28125 C 13.160156 7.417969 13.195312 7.554688 13.230469 7.691406 C 13.332031 7.691406 13.433594 7.691406 13.539062 7.691406 C 13.539062 7.761719 13.539062 7.828125 13.539062 7.898438 C 13.675781 7.929688 13.808594 7.964844 13.949219 8 C 13.984375 8.515625 14.003906 8.910156 13.777344 9.382812 C 13.539062 9.640625 13.539062 9.640625 13.027344 9.847656 C 13.058594 9 13.09375 8.152344 13.128906 7.28125 Z M 13.128906 7.28125 "/>
<path style=" stroke:none;fill-rule:nonzero;fill:rgb(69.803922%,87.058824%,96.470588%);fill-opacity:1;" d="M 12.820312 5.027344 C 13.1875 5.410156 13.238281 5.847656 13.332031 6.351562 C 13.4375 6.902344 13.542969 7.316406 13.847656 7.792969 C 13.8125 7.863281 13.777344 7.929688 13.742188 8 C 13.675781 7.964844 13.609375 7.933594 13.539062 7.898438 C 13.539062 7.828125 13.539062 7.761719 13.539062 7.691406 C 13.4375 7.691406 13.335938 7.691406 13.230469 7.691406 C 13.191406 7.597656 13.15625 7.507812 13.117188 7.410156 C 12.914062 6.933594 12.671875 6.476562 12.429688 6.019531 C 12.308594 5.742188 12.308594 5.742188 12.308594 5.4375 C 12.339844 5.367188 12.375 5.300781 12.410156 5.230469 C 12.546875 5.296875 12.679688 5.367188 12.820312 5.4375 C 12.820312 5.300781 12.820312 5.164062 12.820312 5.027344 Z M 12.820312 5.027344 "/>
<path style=" stroke:none;fill-rule:nonzero;fill:rgb(57.254902%,91.764706%,99.215686%);fill-opacity:1;" d="M 8.617188 5.949219 C 8.988281 5.949219 9.359375 5.949219 9.742188 5.949219 C 9.753906 6.390625 9.761719 6.832031 9.765625 7.273438 C 9.769531 7.421875 9.769531 7.574219 9.773438 7.722656 C 9.78125 7.941406 9.78125 8.15625 9.785156 8.371094 C 9.785156 8.503906 9.789062 8.632812 9.789062 8.765625 C 9.734375 9.191406 9.605469 9.414062 9.332031 9.742188 C 9.113281 9.804688 9.113281 9.804688 8.898438 9.78125 C 8.707031 9.761719 8.707031 9.761719 8.511719 9.742188 C 8.820312 9.539062 8.820312 9.539062 9.230469 9.539062 C 9.5625 7.863281 9.5625 7.863281 9.332031 6.257812 C 9.074219 6.1875 9.074219 6.1875 8.820312 6.152344 C 8.785156 6.324219 8.753906 6.492188 8.71875 6.667969 C 8.683594 6.667969 8.648438 6.667969 8.617188 6.667969 C 8.617188 6.429688 8.617188 6.191406 8.617188 5.949219 Z M 8.617188 5.949219 "/>
<path style=" stroke:none;fill-rule:nonzero;fill:rgb(65.098039%,87.45098%,95.294118%);fill-opacity:1;" d="M 7.390625 2.238281 C 7.5625 2.238281 7.5625 2.238281 7.734375 2.238281 C 7.851562 2.238281 7.96875 2.242188 8.089844 2.242188 C 8.269531 2.246094 8.269531 2.246094 8.453125 2.246094 C 8.746094 2.25 9.039062 2.253906 9.332031 2.257812 C 9.332031 2.289062 9.332031 2.324219 9.332031 2.359375 C 9.261719 2.363281 9.191406 2.363281 9.117188 2.367188 C 8.792969 2.378906 8.464844 2.390625 8.140625 2.402344 C 8.027344 2.40625 7.917969 2.410156 7.800781 2.417969 C 7.636719 2.421875 7.636719 2.421875 7.46875 2.429688 C 7.320312 2.433594 7.320312 2.433594 7.167969 2.441406 C 6.859375 2.460938 6.5625 2.507812 6.257812 2.5625 C 6.257812 2.632812 6.257812 2.699219 6.257812 2.769531 C 6.425781 2.769531 6.59375 2.769531 6.769531 2.769531 C 6.710938 2.796875 6.65625 2.824219 6.59375 2.855469 C 6.433594 2.9375 6.273438 3.023438 6.117188 3.109375 C 5.414062 3.492188 5.414062 3.492188 4.960938 3.46875 C 4.882812 3.441406 4.800781 3.414062 4.71875 3.382812 C 5.132812 2.902344 5.5625 2.683594 6.152344 2.460938 C 6.246094 2.425781 6.339844 2.390625 6.4375 2.355469 C 6.777344 2.253906 7.039062 2.234375 7.390625 2.238281 Z M 7.390625 2.238281 "/>
<path style=" stroke:none;fill-rule:nonzero;fill:rgb(63.921569%,85.490196%,96.078431%);fill-opacity:1;" d="M 3.179688 5.742188 C 3.214844 5.742188 3.246094 5.742188 3.28125 5.742188 C 3.386719 6.234375 3.445312 6.53125 3.1875 6.972656 C 3.117188 7.074219 3.046875 7.175781 2.972656 7.28125 C 2.871094 7.28125 2.769531 7.28125 2.667969 7.28125 C 2.621094 7.449219 2.621094 7.449219 2.578125 7.621094 C 2.460938 8 2.460938 8 2.257812 8.308594 C 2.265625 8.832031 2.277344 9.03125 2.621094 9.4375 C 2.703125 9.503906 2.785156 9.570312 2.871094 9.640625 C 2.839844 9.742188 2.804688 9.84375 2.769531 9.949219 C 2.023438 9.222656 2.023438 9.222656 2.007812 8.71875 C 2.015625 8.191406 2.210938 7.800781 2.445312 7.335938 C 2.578125 7.046875 2.621094 6.773438 2.667969 6.460938 C 2.8125 6.292969 2.8125 6.292969 2.972656 6.152344 C 3.09375 5.9375 3.09375 5.9375 3.179688 5.742188 Z M 3.179688 5.742188 "/>
<path style=" stroke:none;fill-rule:nonzero;fill:rgb(64.705882%,84.313725%,87.058824%);fill-opacity:1;" d="M 11.589844 4 C 12.246094 4.039062 12.246094 4.039062 12.550781 4.351562 C 12.804688 4.75 12.832031 4.964844 12.820312 5.4375 C 12.644531 5.421875 12.644531 5.421875 12.410156 5.332031 C 12.191406 5.058594 12.191406 5.058594 11.972656 4.71875 C 11.902344 4.605469 11.828125 4.492188 11.753906 4.378906 C 11.589844 4.101562 11.589844 4.101562 11.589844 4 Z M 11.589844 4 "/>
<path style=" stroke:none;fill-rule:nonzero;fill:rgb(23.921569%,32.941176%,68.235294%);fill-opacity:1;" d="M 5.640625 12 C 5.847656 12.207031 5.847656 12.207031 5.859375 12.527344 C 5.855469 12.621094 5.851562 12.71875 5.847656 12.820312 C 6.117188 12.921875 6.386719 13.023438 6.667969 13.128906 C 6.632812 13.195312 6.597656 13.261719 6.5625 13.332031 C 6.144531 13.269531 5.832031 13.132812 5.460938 12.929688 C 5.363281 12.875 5.265625 12.820312 5.160156 12.765625 C 4.921875 12.617188 4.921875 12.617188 4.820312 12.410156 C 4.964844 12.367188 4.964844 12.367188 5.117188 12.320312 C 5.441406 12.230469 5.441406 12.230469 5.640625 12 Z M 5.640625 12 "/>
<path style=" stroke:none;fill-rule:nonzero;fill:rgb(30.980392%,39.215686%,82.352941%);fill-opacity:1;" d="M 11.589844 9.230469 C 11.640625 9.382812 11.640625 9.382812 11.691406 9.539062 C 11.363281 10.125 11.363281 10.125 10.972656 10.257812 C 10.972656 10.324219 10.972656 10.390625 10.972656 10.460938 C 9.960938 11.035156 9.25 11.164062 8.101562 11.078125 C 8.101562 11.042969 8.101562 11.007812 8.101562 10.972656 C 8.1875 10.972656 8.273438 10.96875 8.363281 10.964844 C 9.394531 10.914062 10.148438 10.683594 10.972656 10.050781 C 11.207031 9.789062 11.394531 9.523438 11.589844 9.230469 Z M 11.589844 9.230469 "/>
<path style=" stroke:none;fill-rule:nonzero;fill:rgb(38.823529%,41.960784%,76.862745%);fill-opacity:1;" d="M 12.207031 11.382812 C 11.878906 12.175781 11.007812 12.769531 10.257812 13.128906 C 10.1875 13.128906 10.121094 13.128906 10.050781 13.128906 C 10.050781 12.921875 10.050781 12.921875 10.179688 12.757812 C 10.359375 12.617188 10.359375 12.617188 10.769531 12.617188 C 10.769531 12.546875 10.769531 12.480469 10.769531 12.410156 C 10.835938 12.34375 10.90625 12.273438 10.972656 12.207031 C 11.074219 12.207031 11.175781 12.207031 11.28125 12.207031 C 11.28125 12.136719 11.28125 12.070312 11.28125 12 C 11.433594 11.84375 11.433594 11.84375 11.628906 11.679688 C 11.722656 11.597656 11.722656 11.597656 11.824219 11.511719 C 12 11.382812 12 11.382812 12.207031 11.382812 Z M 12.207031 11.382812 "/>
<path style=" stroke:none;fill-rule:nonzero;fill:rgb(7.843137%,18.823529%,51.372549%);fill-opacity:1;" d="M 4 5.4375 C 4.066406 5.46875 4.136719 5.503906 4.207031 5.539062 C 4.105469 5.773438 4.003906 6.011719 3.898438 6.257812 C 3.828125 6.257812 3.761719 6.257812 3.691406 6.257812 C 3.691406 6.390625 3.691406 6.527344 3.691406 6.667969 C 3.625 6.667969 3.558594 6.667969 3.488281 6.667969 C 3.488281 6.972656 3.488281 7.277344 3.488281 7.589844 C 3.351562 7.488281 3.214844 7.386719 3.078125 7.28125 C 3.136719 6.863281 3.277344 6.554688 3.480469 6.1875 C 3.535156 6.089844 3.589844 5.992188 3.644531 5.890625 C 3.792969 5.640625 3.792969 5.640625 4 5.4375 Z M 4 5.4375 "/>
<path style=" stroke:none;fill-rule:nonzero;fill:rgb(49.803922%,84.313725%,94.509804%);fill-opacity:1;" d="M 8.511719 8.71875 C 8.546875 8.820312 8.582031 8.921875 8.617188 9.027344 C 8.472656 9.179688 8.472656 9.179688 8.308594 9.332031 C 8.238281 9.332031 8.171875 9.332031 8.101562 9.332031 C 8.101562 9.433594 8.101562 9.535156 8.101562 9.640625 C 8.203125 9.605469 8.304688 9.574219 8.410156 9.539062 C 8.410156 9.605469 8.410156 9.675781 8.410156 9.742188 C 8.648438 9.742188 8.882812 9.742188 9.128906 9.742188 C 9.128906 9.777344 9.128906 9.8125 9.128906 9.847656 C 8.925781 9.847656 8.722656 9.851562 8.519531 9.851562 C 8.40625 9.855469 8.292969 9.855469 8.175781 9.855469 C 7.898438 9.847656 7.898438 9.847656 7.792969 9.742188 C 7.78125 9.46875 7.789062 9.199219 7.792969 8.921875 C 8.03125 8.921875 8.269531 8.921875 8.511719 8.921875 C 8.511719 8.855469 8.511719 8.789062 8.511719 8.71875 Z M 8.511719 8.71875 "/>
<path style=" stroke:none;fill-rule:nonzero;fill:rgb(16.078431%,24.313725%,50.196078%);fill-opacity:1;" d="M 7.179688 10.5625 C 7.265625 10.574219 7.265625 10.574219 7.351562 10.585938 C 8.316406 10.699219 9.300781 10.746094 10.257812 10.5625 C 9.851562 10.96875 9.339844 11.003906 8.789062 11.007812 C 8.191406 11 7.730469 10.890625 7.179688 10.667969 C 7.179688 10.632812 7.179688 10.597656 7.179688 10.5625 Z M 7.179688 10.5625 "/>
<path style=" stroke:none;fill-rule:nonzero;fill:rgb(21.176471%,27.45098%,65.098039%);fill-opacity:1;" d="M 6.152344 4.101562 C 6.039062 4.148438 5.921875 4.195312 5.800781 4.242188 C 5.429688 4.367188 5.429688 4.367188 5.332031 4.617188 C 5.222656 4.671875 5.222656 4.671875 5.109375 4.730469 C 4.710938 4.996094 4.476562 5.351562 4.207031 5.742188 C 4.136719 5.609375 4.070312 5.472656 4 5.332031 C 5.371094 3.800781 5.371094 3.800781 6.152344 4.101562 Z M 6.152344 4.101562 "/>
<path style=" stroke:none;fill-rule:nonzero;fill:rgb(89.803922%,97.254902%,99.215686%);fill-opacity:1;" d="M 11.691406 4.308594 C 12.1875 4.722656 12.347656 5.125 12.511719 5.742188 C 12.125 5.570312 11.949219 5.363281 11.691406 5.027344 C 11.589844 4.921875 11.488281 4.816406 11.382812 4.71875 C 11.453125 4.683594 11.519531 4.648438 11.589844 4.617188 C 11.625 4.515625 11.65625 4.414062 11.691406 4.308594 Z M 11.691406 4.308594 "/>
<path style=" stroke:none;fill-rule:nonzero;fill:rgb(28.235294%,39.607843%,66.666667%);fill-opacity:1;" d="M 3.078125 10.050781 C 3.179688 10.050781 3.28125 10.050781 3.382812 10.050781 C 3.382812 10.117188 3.382812 10.1875 3.382812 10.257812 C 3.585938 10.359375 3.789062 10.460938 4 10.5625 C 3.980469 10.621094 3.957031 10.679688 3.9375 10.738281 C 3.886719 11.042969 3.972656 11.210938 4.101562 11.488281 C 4 11.488281 3.898438 11.488281 3.792969 11.488281 C 3.609375 11.226562 3.609375 11.226562 3.417969 10.882812 C 3.351562 10.773438 3.289062 10.660156 3.222656 10.546875 C 3.078125 10.257812 3.078125 10.257812 3.078125 10.050781 Z M 3.078125 10.050781 "/>
<path style=" stroke:none;fill-rule:nonzero;fill:rgb(83.529412%,96.470588%,98.039216%);fill-opacity:1;" d="M 3.792969 4.820312 C 3.828125 4.921875 3.863281 5.023438 3.898438 5.128906 C 3.921875 5.191406 3.945312 5.257812 3.96875 5.324219 C 4.011719 5.617188 3.921875 5.730469 3.761719 5.972656 C 3.714844 6.046875 3.671875 6.121094 3.621094 6.195312 C 3.578125 6.25 3.535156 6.304688 3.488281 6.359375 C 3.417969 6.359375 3.351562 6.359375 3.28125 6.359375 C 3.214844 5.699219 3.410156 5.351562 3.792969 4.820312 Z M 3.792969 4.820312 "/>
<path style=" stroke:none;fill-rule:nonzero;fill:rgb(73.72549%,94.117647%,99.607843%);fill-opacity:1;" d="M 12.820312 5.027344 C 12.980469 5.210938 12.980469 5.210938 13.128906 5.4375 C 13.09375 5.539062 13.058594 5.640625 13.027344 5.742188 C 12.992188 5.878906 12.957031 6.015625 12.921875 6.152344 C 12.789062 6.152344 12.652344 6.152344 12.511719 6.152344 C 12.363281 5.882812 12.308594 5.753906 12.308594 5.4375 C 12.339844 5.367188 12.375 5.300781 12.410156 5.230469 C 12.546875 5.296875 12.679688 5.367188 12.820312 5.4375 C 12.820312 5.300781 12.820312 5.164062 12.820312 5.027344 Z M 12.820312 5.027344 "/>
<path style=" stroke:none;fill-rule:nonzero;fill:rgb(18.039216%,38.431373%,78.823529%);fill-opacity:1;" d="M 3.488281 7.488281 C 3.824219 7.804688 3.984375 7.996094 4.019531 8.472656 C 4.023438 8.570312 4.023438 8.667969 4.027344 8.769531 C 4.027344 8.867188 4.03125 8.964844 4.035156 9.066406 C 3.996094 9.371094 3.929688 9.457031 3.691406 9.640625 C 3.660156 9.574219 3.625 9.503906 3.589844 9.4375 C 3.625 9.367188 3.65625 9.300781 3.691406 9.230469 C 3.703125 9.046875 3.710938 8.859375 3.710938 8.671875 C 3.714844 8.574219 3.714844 8.472656 3.714844 8.371094 C 3.710938 8.078125 3.710938 8.078125 3.488281 7.792969 C 3.488281 7.691406 3.488281 7.589844 3.488281 7.488281 Z M 3.488281 7.488281 "/>
<path style=" stroke:none;fill-rule:nonzero;fill:rgb(75.686275%,92.941176%,96.078431%);fill-opacity:1;" d="M 9.4375 2.359375 C 9.898438 2.414062 10.234375 2.53125 10.640625 2.757812 C 10.738281 2.808594 10.835938 2.863281 10.933594 2.914062 C 11.179688 3.078125 11.179688 3.078125 11.382812 3.382812 C 11.28125 3.433594 11.28125 3.433594 11.179688 3.488281 C 11.179688 3.417969 11.179688 3.351562 11.179688 3.28125 C 11.042969 3.25 10.910156 3.214844 10.769531 3.179688 C 10.769531 3.113281 10.769531 3.042969 10.769531 2.972656 C 10.53125 2.941406 10.296875 2.90625 10.050781 2.871094 C 10.050781 2.804688 10.050781 2.738281 10.050781 2.667969 C 9.988281 2.652344 9.925781 2.640625 9.859375 2.628906 C 9.640625 2.5625 9.640625 2.5625 9.4375 2.359375 Z M 9.4375 2.359375 "/>
<path style=" stroke:none;fill-rule:nonzero;fill:rgb(28.627451%,34.901961%,80.784314%);fill-opacity:1;" d="M 9.4375 4 C 10.1875 4.015625 10.679688 4.160156 11.28125 4.617188 C 11.011719 4.71875 10.898438 4.726562 10.621094 4.621094 C 10.535156 4.574219 10.449219 4.527344 10.359375 4.480469 C 10.273438 4.433594 10.183594 4.386719 10.097656 4.339844 C 10.011719 4.296875 9.929688 4.25 9.847656 4.207031 C 9.710938 4.136719 9.574219 4.066406 9.4375 4 Z M 9.4375 4 "/>
<path style=" stroke:none;fill-rule:nonzero;fill:rgb(67.058824%,88.627451%,91.764706%);fill-opacity:1;" d="M 12.617188 4.617188 C 12.820312 4.820312 12.820312 4.820312 12.832031 5.140625 C 12.828125 5.238281 12.824219 5.335938 12.820312 5.4375 C 12.628906 5.410156 12.628906 5.410156 12.410156 5.332031 C 12.277344 5.132812 12.277344 5.132812 12.207031 4.921875 C 12.308594 4.71875 12.308594 4.71875 12.617188 4.617188 Z M 12.617188 4.617188 "/>
<path style=" stroke:none;fill-rule:nonzero;fill:rgb(29.019608%,32.941176%,87.45098%);fill-opacity:1;" d="M 6.152344 4.207031 C 5.625 4.589844 5.101562 4.945312 4.511719 5.230469 C 4.882812 4.75 4.882812 4.75 5.027344 4.617188 C 5.128906 4.617188 5.230469 4.617188 5.332031 4.617188 C 5.367188 4.515625 5.402344 4.414062 5.4375 4.308594 C 5.890625 4.074219 5.890625 4.074219 6.152344 4.207031 Z M 6.152344 4.207031 "/>
<path style=" stroke:none;fill-rule:nonzero;fill:rgb(53.333333%,80.784314%,89.803922%);fill-opacity:1;" d="M 5 3.410156 C 5.074219 3.4375 5.152344 3.460938 5.230469 3.488281 C 4.925781 3.730469 4.621094 3.972656 4.308594 4.207031 C 4.308594 3.792969 4.308594 3.792969 4.480469 3.558594 C 4.71875 3.382812 4.71875 3.382812 5 3.410156 Z M 5 3.410156 "/>
<path style=" stroke:none;fill-rule:nonzero;fill:rgb(22.352941%,28.235294%,77.254902%);fill-opacity:1;" d="M 6.964844 12.769531 C 7.074219 12.808594 7.074219 12.808594 7.1875 12.851562 C 7.257812 12.878906 7.332031 12.90625 7.40625 12.933594 C 7.589844 13.027344 7.589844 13.027344 7.691406 13.230469 C 7.386719 13.230469 7.082031 13.230469 6.769531 13.230469 C 6.769531 13.164062 6.769531 13.09375 6.769531 13.027344 C 6.703125 12.957031 6.632812 12.890625 6.5625 12.820312 C 6.769531 12.71875 6.769531 12.71875 6.964844 12.769531 Z M 6.964844 12.769531 "/>
<path style=" stroke:none;fill-rule:nonzero;fill:rgb(10.196078%,26.27451%,62.352941%);fill-opacity:1;" d="M 3.691406 9.539062 C 3.757812 9.882812 3.757812 9.882812 3.792969 10.257812 C 3.726562 10.324219 3.660156 10.390625 3.589844 10.460938 C 3.488281 10.394531 3.386719 10.324219 3.28125 10.257812 C 3.316406 10.1875 3.351562 10.121094 3.382812 10.050781 C 3.28125 10.015625 3.179688 9.984375 3.078125 9.949219 C 3.578125 9.539062 3.578125 9.539062 3.691406 9.539062 Z M 3.691406 9.539062 "/>
<path style=" stroke:none;fill-rule:nonzero;fill:rgb(75.294118%,93.72549%,99.215686%);fill-opacity:1;" d="M 13.332031 6.871094 C 13.359375 6.929688 13.386719 6.984375 13.417969 7.042969 C 13.539062 7.292969 13.539062 7.292969 13.710938 7.550781 C 13.757812 7.632812 13.800781 7.710938 13.847656 7.792969 C 13.8125 7.863281 13.777344 7.929688 13.742188 8 C 13.675781 7.964844 13.609375 7.933594 13.539062 7.898438 C 13.539062 7.828125 13.539062 7.761719 13.539062 7.691406 C 13.4375 7.691406 13.335938 7.691406 13.230469 7.691406 C 13.226562 7.453125 13.226562 7.214844 13.230469 6.972656 C 13.265625 6.941406 13.296875 6.90625 13.332031 6.871094 Z M 13.332031 6.871094 "/>
<path style=" stroke:none;fill-rule:nonzero;fill:rgb(59.215686%,84.313725%,93.333333%);fill-opacity:1;" d="M 8.410156 2.359375 C 8.679688 2.359375 8.953125 2.359375 9.230469 2.359375 C 9.164062 2.425781 9.09375 2.496094 9.027344 2.5625 C 9.09375 2.632812 9.160156 2.699219 9.230469 2.769531 C 8.519531 2.71875 8.519531 2.71875 7.792969 2.667969 C 7.792969 2.632812 7.792969 2.597656 7.792969 2.5625 C 7.996094 2.5625 8.199219 2.5625 8.410156 2.5625 C 8.410156 2.496094 8.410156 2.429688 8.410156 2.359375 Z M 8.410156 2.359375 "/>
<path style=" stroke:none;fill-rule:nonzero;fill:rgb(35.294118%,39.215686%,61.176471%);fill-opacity:1;" d="M 5.230469 12.71875 C 5.398438 12.71875 5.570312 12.71875 5.742188 12.71875 C 5.742188 12.785156 5.742188 12.851562 5.742188 12.921875 C 5.859375 12.941406 5.859375 12.941406 5.972656 12.960938 C 6.234375 13.019531 6.433594 13.101562 6.667969 13.230469 C 6.386719 13.339844 6.277344 13.339844 5.992188 13.230469 C 5.902344 13.183594 5.8125 13.132812 5.71875 13.082031 C 5.625 13.035156 5.535156 12.984375 5.441406 12.9375 C 5.371094 12.898438 5.300781 12.859375 5.230469 12.820312 C 5.230469 12.785156 5.230469 12.753906 5.230469 12.71875 Z M 5.230469 12.71875 "/>
<path style=" stroke:none;fill-rule:nonzero;fill:rgb(44.313725%,48.235294%,78.823529%);fill-opacity:1;" d="M 12.207031 11.382812 C 12.0625 11.714844 11.90625 11.902344 11.628906 12.128906 C 11.53125 12.207031 11.53125 12.207031 11.433594 12.289062 C 11.382812 12.328125 11.332031 12.371094 11.28125 12.410156 C 11.28125 12 11.28125 12 11.433594 11.824219 C 11.496094 11.773438 11.5625 11.71875 11.628906 11.667969 C 11.691406 11.613281 11.757812 11.558594 11.824219 11.503906 C 12 11.382812 12 11.382812 12.207031 11.382812 Z M 12.207031 11.382812 "/>
<path style=" stroke:none;fill-rule:nonzero;fill:rgb(64.705882%,84.705882%,92.54902%);fill-opacity:1;" d="M 4.511719 3.382812 C 4.582031 3.417969 4.648438 3.453125 4.71875 3.488281 C 4.652344 3.546875 4.585938 3.605469 4.519531 3.667969 C 4.308594 3.894531 4.246094 4.007812 4.207031 4.308594 C 4.136719 4.273438 4.070312 4.238281 4 4.207031 C 4 4.273438 4 4.339844 4 4.410156 C 3.898438 4.410156 3.796875 4.410156 3.691406 4.410156 C 3.863281 3.96875 4.179688 3.703125 4.511719 3.382812 Z M 4.511719 3.382812 "/>
<path style=" stroke:none;fill-rule:nonzero;fill:rgb(52.54902%,76.078431%,87.843137%);fill-opacity:1;" d="M 4 4.207031 C 4.066406 4.207031 4.136719 4.207031 4.207031 4.207031 C 4.023438 4.621094 3.753906 4.96875 3.488281 5.332031 C 3.453125 5.265625 3.417969 5.199219 3.382812 5.128906 C 3.480469 4.886719 3.582031 4.648438 3.691406 4.410156 C 3.792969 4.410156 3.894531 4.410156 4 4.410156 C 4 4.34375 4 4.273438 4 4.207031 Z M 4 4.207031 "/>
<path style=" stroke:none;fill-rule:nonzero;fill:rgb(54.117647%,78.431373%,90.980392%);fill-opacity:1;" d="M 7.398438 2.429688 C 7.519531 2.433594 7.640625 2.4375 7.761719 2.441406 C 7.945312 2.445312 7.945312 2.445312 8.128906 2.449219 C 8.222656 2.453125 8.316406 2.457031 8.410156 2.460938 C 8.410156 2.496094 8.410156 2.527344 8.410156 2.5625 C 7.867188 2.632812 7.328125 2.699219 6.769531 2.769531 C 7.078125 2.460938 7.078125 2.460938 7.398438 2.429688 Z M 7.398438 2.429688 "/>
<path style=" stroke:none;fill-rule:nonzero;fill:rgb(47.843137%,90.196078%,99.607843%);fill-opacity:1;" d="M 3.488281 8 C 3.589844 8.035156 3.691406 8.066406 3.792969 8.101562 C 3.792969 8.40625 3.792969 8.710938 3.792969 9.027344 C 3.726562 8.992188 3.660156 8.957031 3.589844 8.921875 C 3.546875 8.710938 3.546875 8.710938 3.527344 8.457031 C 3.519531 8.371094 3.511719 8.285156 3.503906 8.199219 C 3.496094 8.132812 3.492188 8.066406 3.488281 8 Z M 3.488281 8 "/>
<path style=" stroke:none;fill-rule:nonzero;fill:rgb(14.509804%,32.941176%,47.058824%);fill-opacity:1;" d="M 9.742188 7.382812 C 9.777344 7.382812 9.8125 7.382812 9.847656 7.382812 C 9.878906 7.992188 9.914062 8.601562 9.949219 9.230469 C 9.847656 9.265625 9.746094 9.296875 9.640625 9.332031 C 9.675781 8.691406 9.707031 8.046875 9.742188 7.382812 Z M 9.742188 7.382812 "/>
<path style=" stroke:none;fill-rule:nonzero;fill:rgb(59.215686%,81.960784%,89.803922%);fill-opacity:1;" d="M 11.589844 4 C 11.828125 4.035156 12.0625 4.066406 12.308594 4.101562 C 12.308594 4.238281 12.308594 4.375 12.308594 4.511719 C 12.171875 4.546875 12.035156 4.582031 11.898438 4.617188 C 11.796875 4.414062 11.695312 4.210938 11.589844 4 Z M 11.589844 4 "/>
<path style=" stroke:none;fill-rule:nonzero;fill:rgb(64.313725%,88.235294%,93.72549%);fill-opacity:1;" d="M 6.257812 2.667969 C 6.429688 2.695312 6.601562 2.726562 6.769531 2.769531 C 6.496094 2.917969 6.371094 2.972656 6.050781 2.972656 C 6.050781 2.90625 6.050781 2.839844 6.050781 2.769531 C 5.78125 2.835938 5.507812 2.90625 5.230469 2.972656 C 5.507812 2.582031 5.804688 2.636719 6.257812 2.667969 Z M 6.257812 2.667969 "/>
<path style=" stroke:none;fill-rule:nonzero;fill:rgb(74.901961%,92.156863%,96.078431%);fill-opacity:1;" d="M 12.820312 5.027344 C 12.980469 5.210938 12.980469 5.210938 13.128906 5.4375 C 13.027344 5.742188 13.027344 5.742188 12.921875 5.949219 C 12.855469 5.949219 12.789062 5.949219 12.71875 5.949219 C 12.71875 5.8125 12.71875 5.679688 12.71875 5.539062 C 12.648438 5.503906 12.582031 5.472656 12.511719 5.4375 C 12.613281 5.4375 12.714844 5.4375 12.820312 5.4375 C 12.820312 5.300781 12.820312 5.164062 12.820312 5.027344 Z M 12.820312 5.027344 "/>
<path style=" stroke:none;fill-rule:nonzero;fill:rgb(60%,85.882353%,94.901961%);fill-opacity:1;" d="M 2.152344 8.820312 C 2.253906 8.972656 2.253906 8.972656 2.359375 9.128906 C 2.527344 9.300781 2.699219 9.472656 2.871094 9.640625 C 2.839844 9.742188 2.804688 9.84375 2.769531 9.949219 C 2.152344 9.332031 2.152344 9.332031 2.148438 9.070312 C 2.148438 8.988281 2.152344 8.90625 2.152344 8.820312 Z M 2.152344 8.820312 "/>
<path style=" stroke:none;fill-rule:nonzero;fill:rgb(16.078431%,23.529412%,44.313725%);fill-opacity:1;" d="M 11.589844 8.820312 C 11.65625 8.820312 11.726562 8.820312 11.792969 8.820312 C 11.65625 9.1875 11.492188 9.511719 11.28125 9.847656 C 11.179688 9.539062 11.179688 9.539062 11.257812 9.351562 C 11.371094 9.175781 11.480469 8.996094 11.589844 8.820312 Z M 11.589844 8.820312 "/>
<path style=" stroke:none;fill-rule:nonzero;fill:rgb(67.45098%,91.372549%,98.039216%);fill-opacity:1;" d="M 13.128906 9.230469 C 13.296875 9.265625 13.464844 9.296875 13.640625 9.332031 C 13.605469 9.433594 13.574219 9.535156 13.539062 9.640625 C 13.277344 9.761719 13.277344 9.761719 13.027344 9.847656 C 13.058594 9.644531 13.09375 9.441406 13.128906 9.230469 Z M 13.128906 9.230469 "/>
<path style=" stroke:none;fill-rule:nonzero;fill:rgb(28.627451%,37.254902%,81.176471%);fill-opacity:1;" d="M 5.847656 6.257812 C 5.914062 6.289062 5.980469 6.324219 6.050781 6.359375 C 5.882812 6.699219 5.710938 7.035156 5.539062 7.382812 C 5.425781 7.042969 5.4375 6.90625 5.539062 6.5625 C 5.699219 6.378906 5.699219 6.378906 5.847656 6.257812 Z M 5.847656 6.257812 "/>
<path style=" stroke:none;fill-rule:nonzero;fill:rgb(25.882353%,39.607843%,86.666667%);fill-opacity:1;" d="M 12.410156 6.152344 C 12.476562 6.152344 12.546875 6.152344 12.617188 6.152344 C 12.765625 6.425781 12.820312 6.554688 12.820312 6.871094 C 12.621094 6.789062 12.621094 6.789062 12.410156 6.667969 C 12.375 6.566406 12.34375 6.464844 12.308594 6.359375 C 12.339844 6.292969 12.375 6.222656 12.410156 6.152344 Z M 12.410156 6.152344 "/>
<path style=" stroke:none;fill-rule:nonzero;fill:rgb(15.294118%,23.529412%,47.843137%);fill-opacity:1;" d="M 6.871094 5.4375 C 6.941406 5.46875 7.007812 5.503906 7.078125 5.539062 C 6.960938 5.628906 6.960938 5.628906 6.839844 5.71875 C 6.597656 5.917969 6.429688 6.101562 6.257812 6.359375 C 6.1875 6.324219 6.121094 6.292969 6.050781 6.257812 C 6.148438 6.136719 6.246094 6.019531 6.347656 5.902344 C 6.402344 5.839844 6.457031 5.773438 6.511719 5.707031 C 6.667969 5.539062 6.667969 5.539062 6.871094 5.4375 Z M 6.871094 5.4375 "/>
<path style=" stroke:none;fill-rule:nonzero;fill:rgb(81.176471%,96.078431%,98.823529%);fill-opacity:1;" d="M 12.101562 4.820312 C 12.378906 5.097656 12.417969 5.371094 12.511719 5.742188 C 12.1875 5.601562 12.101562 5.539062 11.898438 5.230469 C 11.964844 5.230469 12.03125 5.230469 12.101562 5.230469 C 12.101562 5.09375 12.101562 4.960938 12.101562 4.820312 Z M 12.101562 4.820312 "/>
<path style=" stroke:none;fill-rule:nonzero;fill:rgb(43.921569%,50.588235%,81.568627%);fill-opacity:1;" d="M 12.71875 10.152344 C 12.785156 10.1875 12.851562 10.222656 12.921875 10.257812 C 12.789062 10.527344 12.652344 10.796875 12.511719 11.078125 C 12.480469 11.078125 12.445312 11.078125 12.410156 11.078125 C 12.410156 10.90625 12.410156 10.738281 12.410156 10.5625 C 12.476562 10.5625 12.546875 10.5625 12.617188 10.5625 C 12.648438 10.429688 12.683594 10.292969 12.71875 10.152344 Z M 12.71875 10.152344 "/>
<path style=" stroke:none;fill-rule:nonzero;fill:rgb(16.862745%,27.058824%,34.901961%);fill-opacity:1;" d="M 5.640625 7.589844 C 5.742188 7.726562 5.84375 7.859375 5.949219 8 C 5.882812 8.136719 5.8125 8.269531 5.742188 8.410156 C 5.675781 8.410156 5.609375 8.410156 5.539062 8.410156 C 5.574219 8.140625 5.605469 7.867188 5.640625 7.589844 Z M 5.640625 7.589844 "/>
<path style=" stroke:none;fill-rule:nonzero;fill:rgb(73.72549%,93.333333%,97.647059%);fill-opacity:1;" d="M 3.382812 5.4375 C 3.417969 5.4375 3.453125 5.4375 3.488281 5.4375 C 3.601562 6.128906 3.601562 6.128906 3.488281 6.359375 C 3.417969 6.359375 3.351562 6.359375 3.28125 6.359375 C 3.269531 5.667969 3.269531 5.667969 3.382812 5.4375 Z M 3.382812 5.4375 "/>
<path style=" stroke:none;fill-rule:nonzero;fill:rgb(65.882353%,88.627451%,97.254902%);fill-opacity:1;" d="M 3.179688 5.742188 C 3.214844 5.742188 3.246094 5.742188 3.28125 5.742188 C 3.316406 6.015625 3.351562 6.285156 3.382812 6.5625 C 3.28125 6.5625 3.179688 6.5625 3.078125 6.5625 C 3.074219 6.324219 3.074219 6.085938 3.078125 5.847656 C 3.109375 5.8125 3.144531 5.777344 3.179688 5.742188 Z M 3.179688 5.742188 "/>
<path style=" stroke:none;fill-rule:nonzero;fill:rgb(90.588235%,90.588235%,100%);fill-opacity:1;" d="M 9.742188 1.742188 C 9.945312 1.792969 9.945312 1.792969 10.152344 1.847656 C 10.121094 1.914062 10.085938 1.980469 10.050781 2.050781 C 9.914062 2.015625 9.78125 1.984375 9.640625 1.949219 C 9.675781 1.882812 9.707031 1.8125 9.742188 1.742188 Z M 9.742188 1.742188 "/>
</g>
</svg>
